<?xml version="1.0" standalone="no"?>
<!DOCTYPE svg PUBLIC "-//W3C//DTD SVG 1.1//EN" "http://www.w3.org/Graphics/SVG/1.1/DTD/svg11.dtd" >
<svg xmlns="http://www.w3.org/2000/svg">
<metadata>
Created by FontForge 20120731 at Mon Jan 16 10:43:27 2017
 By admin
</metadata>
<defs>
<font id="iconfont" horiz-adv-x="1024" >
  <font-face 
    font-family="iconfont"
    font-weight="500"
    font-stretch="normal"
    units-per-em="1024"
    panose-1="2 0 6 3 0 0 0 0 0 0"
    ascent="896"
    descent="-128"
    x-height="792"
    bbox="-0.756098 -212.125 1422.29 896.75"
    underline-thickness="0"
    underline-position="0"
    unicode-range="U+0078-E85F"
  />
<missing-glyph 
 />
    <glyph glyph-name=".notdef" 
 />
    <glyph glyph-name=".notdef" 
 />
    <glyph glyph-name=".null" horiz-adv-x="0" 
 />
    <glyph glyph-name="nonmarkingreturn" horiz-adv-x="341" 
 />
    <glyph glyph-name="x" unicode="x" horiz-adv-x="1001" 
d="M281 543q-27 -1 -53 -1h-83q-18 0 -36.5 -6t-32.5 -18.5t-23 -32t-9 -45.5v-76h912v41q0 16 -0.5 30t-0.5 18q0 13 -5 29t-17 29.5t-31.5 22.5t-49.5 9h-133v-97h-438v97zM955 310v-52q0 -23 0.5 -52t0.5 -58t-10.5 -47.5t-26 -30t-33 -16t-31.5 -4.5q-14 -1 -29.5 -0.5
t-29.5 0.5h-32l-45 128h-439l-44 -128h-29h-34q-20 0 -45 1q-25 0 -41 9.5t-25.5 23t-13.5 29.5t-4 30v167h911zM163 247q-12 0 -21 -8.5t-9 -21.5t9 -21.5t21 -8.5q13 0 22 8.5t9 21.5t-9 21.5t-22 8.5zM316 123q-8 -26 -14 -48q-5 -19 -10.5 -37t-7.5 -25t-3 -15t1 -14.5
t9.5 -10.5t21.5 -4h37h67h81h80h64h36q23 0 34 12t2 38q-5 13 -9.5 30.5t-9.5 34.5q-5 19 -11 39h-368zM336 498v228q0 11 2.5 23t10 21.5t20.5 15.5t34 6h188q31 0 51.5 -14.5t20.5 -52.5v-227h-327z" />
    <glyph glyph-name="right" unicode="&#xe603;" 
d="M880 281l-485 523h-224l485 -523l-485 -485h224z" />
    <glyph glyph-name="left" unicode="&#xe612;" 
d="M656 -204h224l-485 485l485 523h-224l-485 -523z" />
    <glyph glyph-name="down" unicode="&#xe613;" 
d="M510 279l192 197v-139l-192 -202l-192 202v139z" />
    <glyph glyph-name="left1" unicode="&#xe614;" 
d="M483 305l43 -42l155 -150h-139l-203 192l203 192h139l-155 -149z" />
    <glyph glyph-name="dianhua" unicode="&#xe615;" 
d="M881 86q0 -78 -37 -105q-40 -28 -177 -31q-42 -1 -154 -1q-219 0 -275 11q-67 13 -84 58q-9 25 -9 68q0 46 18 105t53 119t79 111.5t102 83.5t116 32t116 -32t102 -83.5t79 -111.5t53 -119t18 -105zM514 472q-65 0 -110.5 -46t-45.5 -111t45.5 -111t110.5 -46t111 46
t46 111t-46 111t-111 46zM186 357q26 41 57.5 77t72 67.5t91.5 50t105 18.5t106 -19.5t93 -52t72 -68t52 -73.5q21 -33 53.5 -32t50.5 32q4 9 7 26.5t0 45t-14.5 56.5t-42 58.5t-76 52.5t-123.5 37.5t-178 14.5q-101 0 -179.5 -15t-124 -39t-76 -53.5t-41.5 -59t-13.5 -56.5
t1 -44.5t8.5 -23.5q14 -21 36.5 -25t39.5 4.5t23 20.5z" />
    <glyph glyph-name="more" unicode="&#xe66f;" 
d="M122 422q-48 0 -85 -37t-37 -85t37 -85t85 -37q51 0 86 36.5t35 85.5t-35 85.5t-86 36.5zM512 422q-52 0 -87 -36.5t-35 -85.5q0 -48 37 -85t85 -37t85 37t37 85q0 49 -35 85.5t-87 36.5zM902 422q-51 0 -86 -36.5t-35 -85.5q0 -48 36.5 -85t84.5 -37t85 37t37 85t-37 85
t-85 37z" />
    <glyph glyph-name="more1" unicode="&#xe682;" 
d="M902 689h-777q-46 0 -78.5 -32.5t-32.5 -78.5v-556q0 -46 32.5 -78.5t78.5 -32.5h777q46 0 79 32.5t33 78.5v556q0 46 -33 78.5t-79 32.5zM305 237q-26 -26 -61 -26t-60.5 26t-25.5 61t25.5 61t60.5 26t61 -26t26 -61t-26 -61zM583 237q-26 -26 -61 -26t-61 26t-26 61
t26 61t61 26t61 -26t26 -61t-26 -61zM860.5 237q-25.5 -26 -60.5 -26t-61 26t-26 61t26 61t61 26t60.5 -26t25.5 -61t-25.5 -61z" />
    <glyph glyph-name="bangzhu" unicode="&#xe617;" 
d="M512 748q93 0 174.5 -35t142.5 -96.5t96 -143t35 -173.5q0 -93 -35 -174.5t-96 -142.5t-142.5 -96t-174.5 -35t-174.5 35t-142.5 96t-96 142.5t-35 174.5q0 92 35 173.5t96 143t142.5 96.5t174.5 35v0zM521 62q20 0 34 13.5t14 32.5q0 20 -14 33.5t-34 13.5
q-21 0 -34.5 -13.5t-13.5 -33.5q0 -19 13.5 -32.5t34.5 -13.5v0zM567 249q0 9 13 22t29 30q16 19 29.5 43.5t13.5 57.5q0 22 -9 46t-28 44t-49.5 33t-72.5 13q-50 0 -79.5 -17t-45 -41t-20 -50t-4.5 -43t14 -24t31 -6t31 9.5t14 23.5q0 9 1 20t7.5 21t18.5 16.5t33 6.5
q34 0 53.5 -18t19.5 -42q0 -20 -14 -38.5t-30.5 -34t-30.5 -27.5t-14 -19v-50q0 -7 14 -10t30.5 -2.5t30.5 4t14 10.5v22v0z" />
    <glyph glyph-name="shang" unicode="&#xe619;" 
d="M209 108q-7 0 -9 4t3 10l298 357q4 6 10.5 6t11.5 -6l298 -357q4 -6 2.5 -10t-9.5 -4h-605z" />
    <glyph glyph-name="list" unicode="&#xe604;" 
d="M2 -105h170v170h-170v-170zM36 31h102v-102h-102v102zM2 236h170v170h-170v-170zM36 372h102v-102h-102v102zM274 -71h750v68h-750v-68zM274 644v-68h750v68h-750zM2 542h170v171h-170v-171zM36 678h102v-102h-102v102zM274 270h750v68h-750v-68z" />
    <glyph glyph-name="xingxing" unicode="&#xe61a;" 
d="M785 -114l-276 133l-278 -129l44 298l-211 219l303 51l147 264l144 -266l302 -56l-214 -216z" />
    <glyph glyph-name="xia" unicode="&#xe61b;" 
d="M814 492q8 0 9.5 -3.5t-2.5 -9.5l-298 -357q-5 -6 -11.5 -6t-10.5 6l-298 357q-5 6 -3 9.5t9 3.5h605z" />
    <glyph glyph-name="mobile" unicode="&#xe68b;" 
d="M704 756h-395q-35 0 -59.5 -25t-24.5 -60v-734q0 -35 24.5 -59.5t59.5 -24.5h395q35 0 60 24.5t25 59.5v734q0 35 -25 60t-60 25zM394 713h226v-28h-226v28zM506.5 -91q-23.5 0 -40 16.5t-16.5 40t16.5 40t40 16.5t40 -16.5t16.5 -40t-16.5 -40t-40 -16.5zM732 78h-451
v565h451v-565z" />
    <glyph glyph-name="msnui-workbench" unicode="&#xe654;" 
d="M395 564v11l-130 -135l174 -203q25 -4 42 -24.5t19 -48.5q63 -12 102.5 -42t39.5 -67q0 -49 -63 -83t-152.5 -34t-153 34t-63.5 83q0 37 39.5 67t102.5 42q2 25 17 45l-162 190q-2 2 -4.5 6t-7 18.5t0.5 28.5q3 10 9 20t11 15l5 5l205 211q-12 13 -22 26q-7 10 -4 22.5
t15 22.5q41 33 57 46q17 13 33.5 11t25.5 -13q5 -6 19.5 -24t26.5 -33l13 -15q10 1 21 1q89 0 152 -54t63 -129.5t-63 -129t-152.5 -53.5t-152.5 53.5t-63 129.5z" />
    <glyph glyph-name="bangzhu1" unicode="&#xe61e;" 
d="M512 -152q-92 0 -175.5 36t-144 96.5t-96.5 144t-36 175.5t36 175.5t96.5 144t144 96.5t175.5 36t175.5 -36t144 -96.5t96.5 -144t36 -175.5t-36 -175.5t-96.5 -144t-144 -96.5t-175.5 -36zM512 662q-98 0 -181.5 -48.5t-132 -132t-48.5 -181.5t48.5 -181.5t132 -132
t181.5 -48.5t181.5 48.5t132 132t48.5 181.5t-48.5 181.5t-132 132t-181.5 48.5zM534 162q-19 0 -32.5 -12.5t-13.5 -31.5q0 -18 13.5 -31t32.5 -13t32 13t13 31q0 19 -13 31.5t-32 12.5zM650 440q-8 23 -26.5 42t-47 31.5t-69.5 12.5q-47 0 -75 -16t-42.5 -39t-19 -47.5
t-4.5 -41.5q0 -16 13.5 -22.5t29.5 -5.5t29.5 9.5t13.5 21.5q0 9 1 19.5t6.5 20t17 15.5t32.5 6q31 0 49.5 -17t18.5 -40q0 -19 -13 -36.5t-28 -32.5q-6 -5 -19.5 -14t-17.5 -12q-3 -3 -8.5 -7t-9 -6.5t-3.5 -4.5v-48q0 -4 21 -8q14 -3 33 -3q13 0 26 4q10 2 10 10v21
q0 4 17 20q26 25 30 29q19 21 30 41q13 24 13 54q0 23 -8 44z" />
    <glyph glyph-name="edit" unicode="&#xe690;" 
d="M92 -154q-12 0 -21 8l-6 6q-11 12 -7 27q8 36 19.5 76t35 101.5t43.5 81.5l570 570q38 38 92 38q58 0 99 -41l6 -7q41 -40 44 -96q3 -59 -36 -99l-570 -570q-20 -20 -82.5 -42.5t-104 -33t-76.5 -18.5q-3 -1 -6 -1zM818 697q-30 0 -52 -21l-570 -571q-29 -28 -74 -194
q170 42 198 70l571 571q21 21 19 54q-2 35 -27 60l-6 6q-25 25 -59 25zM867 497q-6 0 -10 4l-153 153q-10 10 0 20t20 0l153 -153q10 -10 0 -20q-4 -4 -10 -4zM349 -21q-6 0 -10 4l-153 153q-10 10 0 20t20 0l153 -153q4 -4 4 -10t-4 -10t-10 -4zM237 -94q-6 0 -10 4l-98 98
q-4 4 -4 10t4 10q10 10 20 0l98 -98q10 -10 0 -20q-4 -4 -10 -4zM255 73q-6 0 -10 4q-10 10 0 20l424 424q10 10 20 0t0 -20l-424 -424q-4 -4 -10 -4zM720 538q-6 0 -10 4q-10 10 0 20l53 53q10 10 20 0t0 -20l-53 -53q-4 -4 -10 -4zM302 26q-6 0 -10 4q-10 10 0 20l518 518
q10 10 20 0t0 -20l-518 -518q-4 -4 -10 -4z" />
    <glyph glyph-name="cubes" unicode="&#xe611;" horiz-adv-x="1317" 
d="M366 -121l219 110v180l-219 -94v-196zM329 139l231 99l-231 99l-231 -99zM951 -121l219 110v180l-219 -94v-196zM914 139l231 99l-231 99l-231 -99zM658 306l220 95v152l-220 -94v-153zM622 523l252 108l-252 108l-252 -108zM1243 227v-238q0 -20 -10.5 -38t-29.5 -27
l-256 -128q-14 -8 -32.5 -8t-32.5 8l-256 128q-3 1 -4 2q-1 -1 -4 -2l-256 -128q-15 -8 -33 -8t-32 8l-256 128q-19 9 -30 27t-11 38v238q0 22 12.5 40t32.5 27l248 107v228q0 22 12 40t32 28l256 109q13 6 28.5 6t28.5 -6l256 -109q20 -10 32.5 -28t12.5 -40v-228l248 -107
q20 -9 32 -27t12 -40z" />
    <glyph glyph-name="top" unicode="&#xe61f;" 
d="M495 788h31q-1 -11 0.5 -14.5t7.5 -7.5q122 -97 163 -256h-185.5t-183.5 1q40 146 139 235q2 2 9.5 7.5t13 10t5.5 7.5q1 4 0.5 10t-0.5 7zM321 482h383q18 -88 16 -141q-3 -51 -20 -134q-24 -108 -64 -245h-244q-33 94 -66 243q-37 166 -6 274q0 2 1 3zM438 365
q-12 -40 11 -71.5t64 -31.5q35 1 58 26q16 18 18.5 42.5t-7 45t-30.5 33t-47 10.5q-52 -6 -67 -54zM145 180v30q11 108 125 141q15 -169 70 -327q-19 -26 -27 -39.5t-17 -41t-8 -55.5q-131 104 -143 292zM756 351q76 -23 106 -77q30 -55 11 -157q-13 -69 -50 -132
q-41 -67 -85 -96q2 55 -36 111q-2 3 -6.5 8.5t-7.5 9.5t-3 6q0 3 2 10t5.5 15t5.5 12q44 145 57 288zM425 -68h174q-5 -10 -17 -30t-17 -31q-6 4 -14.5 13t-12.5 12q-4 -14 -13 -42t-13 -42q-7 16 -19 47.5t-14 36.5q-4 -8 -12 -23.5t-10 -19.5q-8 19 -32 79z" />
    <glyph glyph-name="zhongdianchangsuo" unicode="&#xe643;" 
d="M516 -159q-4 0 -8 1q-14 3 -22 16l-6 7q-67 28 -120 68t-90 84t-64.5 104t-44 116t-27 131.5t-15 138t-7.5 149.5q-1 12 6.5 22t19 13.5t23 -0.5t18.5 -14q69 -108 131 -108q75 0 175 149q11 17 31 17q21 0 32 -18q100 -148 175 -148q61 0 131 108q6 10 17.5 14t23.5 0.5
t19 -13.5t6 -22q-3 -83 -7.5 -145t-15 -137t-27 -131.5t-44 -117t-64.5 -106t-90 -86t-120 -68.5l-6 -8q-10 -16 -30 -16zM190 548q9 -124 28 -218.5t45.5 -159.5t66.5 -112.5t83.5 -76.5t102.5 -52q70 27 122.5 69t88 94.5t59.5 124t37 150.5t20 182q-58 -53 -120 -53
q-101 0 -207 141q-106 -141 -206 -141q-62 0 -120 52zM513 206q-13 0 -22.5 9.5t-9.5 22.5q-3 23 -11.5 67t-9.5 50q-2 11 -7.5 32t-8 33.5t-4 33.5t4.5 32q11 33 48 41t62 -14q13 -12 20 -26.5t7 -33.5t-2 -32t-7.5 -36t-6.5 -31q-3 -18 -10 -56.5t-11 -59.5
q0 -13 -9.5 -22.5t-22.5 -9.5zM551 114q0 -16 -11 -27t-27 -11t-27 11t-11 27t11 27.5t27 11.5t27 -11.5t11 -27.5z" />
    <glyph glyph-name="iconfontcolor35" unicode="&#xe62e;" 
d="M512 812q-139 0 -257 -68.5t-186.5 -186.5t-68.5 -257t68.5 -257t186.5 -186.5t257 -68.5t257 68.5t186.5 186.5t68.5 257t-68.5 257t-186.5 186.5t-257 68.5zM832 252h-320q-15 0 -24 11q-8 9 -8 21v0v0v0v320q0 14 9.5 23t22.5 9t22.5 -9t9.5 -23v-288h288
q14 0 23 -9.5t9 -22.5t-9 -22.5t-23 -9.5z" />
    <glyph glyph-name="mail" unicode="&#xe68c;" 
d="M675 332l274 265q12 -13 12 -30v-534q0 -16 -11 -28zM77 598q12 11 28 11h814q16 0 28 -11l-435 -340zM74 5q-11 12 -11 28v534q0 18 12 30l274 -265zM512 174l114 110l322 -281q-12 -12 -29 -12h-814q-17 0 -29 12l322 281z" />
    <glyph glyph-name="dianhua2" unicode="&#xe620;" 
d="M89 589q2 3 5 8.5t13.5 19t21.5 23t29.5 16t37.5 3.5t44 -20.5t51 -49.5q36 -45 48.5 -82.5t6.5 -59.5t-19 -37.5t-23.5 -21.5t-12.5 -6l-8.5 -8.5t-16.5 -22t-16 -32t-0.5 -35t22.5 -33.5q30 -23 86 -71t98 -85l42 -36q2 -4 7 -9t19.5 -16.5t29 -17t35.5 -2t40 20.5
q45 38 71.5 51.5t52.5 10t59 -28.5q202 -151 -23 -239q-58 -28 -130 -12t-142 52.5t-130.5 81.5t-95.5 75t-37 33l-19 19t-43.5 49.5t-57.5 75t-52 90.5t-36.5 101t-1 100.5t44.5 94.5zM526 506q-1 1 -7 0t-15 2t-17 8t-12 18t-1 32q4 22 36 29t67 -4q19 -5 42 -16t57 -35
t61 -54.5t47.5 -79t22.5 -103.5q0 -3 -1 -6.5t-5.5 -12.5t-10.5 -15t-15.5 -10t-21.5 -1q-15 4 -23.5 20t-9.5 34t-1.5 35t-0.5 23q-1 6 -8.5 21t-23.5 36t-37 39t-54 30t-69 10zM648 678q-1 1 -8.5 -0.5t-18.5 2.5t-20.5 10t-14.5 21.5t-1 38.5q4 27 43.5 36t82.5 -5
q23 -6 51 -19.5t70 -43t75 -66.5t58 -96t27 -128q0 -1 -1 -3.5t-3.5 -10.5t-6 -13.5t-9 -14t-12 -11.5t-15.5 -5t-19 4q-11 5 -19.5 18.5t-13.5 33t-7.5 35t-4 33.5t-1.5 20q-1 8 -9.5 25.5t-28 43t-45 47t-65.5 36t-84 12.5z" />
    <glyph glyph-name="right1" unicode="&#xe621;" 
d="M239 -27l338 338v0l-338 338l107 106l444 -444l-444 -445z" />
    <glyph glyph-name="hotline" unicode="&#xe622;" 
d="M748 64l-83 132q-5 7 -13.5 9t-16.5 -3l-42 -36q-15 -6 -30.5 6.5t-44.5 48.5l-71 113q-28 56 -6 73l49 26v0q8 5 10 13.5t-3 16.5v0l-83 132q-5 8 -13.5 9.5t-16.5 -2.5l-43 -34q-10 -9 -19 -24t-14.5 -45t-2.5 -67t24 -93.5t60 -119.5q40 -65 82.5 -111t76 -67
t64.5 -30.5t49.5 -8t29.5 7.5l51 23v1q7 4 9 13t-3 16v1v0zM510.5 737q-90.5 0 -173.5 -35.5t-143 -95.5t-95.5 -142.5t-35.5 -173.5t35.5 -174t95.5 -143t143 -95.5t173.5 -35.5t173.5 35.5t143 95.5t95.5 143t35.5 174t-35.5 173.5t-95.5 142.5t-143 95.5t-173.5 35.5z
M510.5 -109q-108.5 0 -200.5 53.5t-145.5 145t-53.5 200t53.5 200.5t145.5 145.5t200.5 53.5t200 -53.5t145 -145.5t53.5 -200.5t-53.5 -200t-145 -145t-200 -53.5z" />
    <glyph glyph-name="jia" unicode="&#xe623;" 
d="M514 756q-93 0 -178 -36.5t-146.5 -98t-98 -146.5t-36.5 -178.5t36.5 -178.5t98 -146.5t146.5 -98t178.5 -36.5t178.5 36.5t146.5 98t98 146.5t36.5 178.5t-36.5 178.5t-98 146.5t-146.5 98t-179 36.5v0zM514 -115q-111 0 -205.5 55.5t-149.5 150t-55 206t55 206
t149.5 149.5t206 55t206 -55t149.5 -149.5t55 -206t-55 -206t-149.5 -150t-206.5 -55.5v0zM688 329h-141v141q0 9 -10.5 16.5t-21.5 7.5t-21.5 -7.5t-10.5 -16.5v-141h-142q-9 0 -16.5 -10.5t-7.5 -21.5t7.5 -21.5t16.5 -10.5h142v-142q0 -9 10.5 -16.5t21.5 -7.5t21.5 7.5
t10.5 16.5v142h141q9 0 16.5 10.5t7.5 21.5t-7.5 21.5t-16.5 10.5v0zM688 329z" />
    <glyph glyph-name="shijian" unicode="&#xe671;" 
d="M512 -212q-139 0 -257 68.5t-186.5 186.5t-68.5 257t68.5 257t186.5 186.5t257 68.5t257 -68.5t186.5 -186.5t68.5 -257t-68.5 -257t-186.5 -186.5t-257 -68.5zM512 755q-93 0 -177 -36t-145 -97t-97 -145t-36 -177t36 -177t97 -145t145 -97t177 -36t177 36t145 97
t97 145t36 177t-36 177t-97 145t-145 97t-177 36zM740 243h-285v398h57v-341h228v-57z" />
    <glyph glyph-name="income" unicode="&#xe672;" 
d="M1013 343q0 53 -68 95q1 1 1.5 3t1.5 3h2v125v0v2q0 41 -41 75.5t-108.5 56t-150 33.5t-169.5 12t-170 -11.5t-150.5 -33.5t-108.5 -56t-41 -76v-2v0v-125h3q10 -41 65 -75q-5 -14 -5 -26v-1v-2v0v-124h2q0 -2 1 -4t1 -3q-67 -41 -67 -95v-1v-1v0v-125h3q9 -40 52.5 -71
t110 -49.5t144 -28t160.5 -9.5t160 9.5t143.5 28t110.5 49.5t53 71h2v125v0v1v1q0 11 -4 24q54 34 64 77h3v125v0v2v1zM74 416q-21 22 -21 46v30q9 -8 21 -15v-61zM53 569q0 24 32 48.5t87 44t136.5 32t172.5 12.5t172.5 -12.5t136.5 -32t86.5 -44t31.5 -48.5t-31.5 -48.5
t-86.5 -44t-136.5 -31.5t-173 -12t-172.5 12t-136 31.5t-87 44t-32 48.5zM908 492v-30q0 -24 -20 -46v61q11 7 20 15zM846 454v-68q-9 -5 -21 -10v70q11 4 21 8zM783 431v-70q-19 -6 -41 -11v70q22 5 41 11zM700 411v-69q-48 -8 -105 -12v66q55 5 105 15zM554 393v-66
q-40 -1 -73 -1h-5.5h-5.5v65h11q37 0 73 2zM428 392v-65q-41 1 -83 4v67q41 -4 83 -6zM303 404v-68q-20 2 -41 6v69q19 -4 41 -7zM220 420v-70q-24 6 -42 11v70q20 -6 42 -11zM136 446v-70q-11 5 -21 10v68q10 -4 21 -8zM115 266q10 -8 21 -15v-61q-21 22 -21 46v30zM74 -39
q-21 22 -21 47v30q9 -8 21 -16v-61zM136 -78q-12 5 -21 9v69q10 -5 21 -9v-69zM220 -104q-23 5 -42 11v69q19 -5 42 -11v-69zM303 -119q-22 3 -41 6v69q20 -4 41 -7v-68zM428 -128q-44 1 -83 5v67q41 -5 83 -6v-66zM554 -127q-39 -2 -73 -2h-11v65h11q35 0 73 3v-66z
M700 -113q-48 -8 -105 -12v67q55 5 105 14v-69zM783 -93q-19 -6 -41 -11v69q22 5 41 11v-69zM846 -69q-9 -4 -21 -9v69q12 5 21 9v-69zM908 8q0 -25 -20 -47v61q11 7 20 16v-30zM480.5 -22q-91.5 0 -172.5 12t-136 32t-87 44t-32 48q0 30 46 59q47 -57 171 -86t273 -29
q232 0 365 60v-2v-2q0 -24 -31.5 -48t-86.5 -44t-136.5 -32t-173 -12zM178 160v68q11 -4 21 -8v-70q-12 5 -21 10zM241 135v70q18 -6 41 -11v-70q-22 5 -41 11zM324 116v69q21 -4 42 -7v-68zM408 106v67q40 -5 83 -7v-65q-43 1 -83 5zM533 100v65h5.5h4.5q35 0 73 2v-65
q-39 -2 -73 -2h-5h-5zM658 104v66q54 5 104 15v-69q-47 -8 -104 -12zM804 124v70q23 5 42 11v-70q-20 -6 -42 -11zM908 160l-20 -10v70l20 8v-68zM971 236q0 -24 -21 -46v61q11 7 21 15v-30zM543 207q-91 0 -172.5 12t-136.5 31.5t-87 44t-32 48.5q0 2 1 6q67 -30 164 -46
t201 -16q145 0 269.5 30t173.5 85q47 -29 47 -59q0 -24 -32 -48.5t-87 -44t-136.5 -31.5t-172.5 -12z" />
    <glyph glyph-name="shubaozhong1" unicode="&#xe624;" 
d="M897 -5v193q0 26 -16 42t-32 19l-16 3v163q0 91 -38 138t-93 52q-11 68 -64.5 114.5t-124.5 46.5q-70 0 -123.5 -45.5t-65.5 -113.5q-42 -9 -71 -32.5t-40.5 -50.5t-16 -52.5t-4 -42t1.5 -16.5v-161q-67 -1 -67 -69v-187q0 -16 7 -28.5t16 -18.5t20 -10t16.5 -4.5
t7.5 -0.5q0 -32 13 -54.5t31.5 -32.5t37.5 -14.5t31.5 -5t13.5 0.5h385q38 0 64.5 10.5t38 26t18 31t6.5 25.5l-1 11q61 21 65 63v0zM513 694q40 0 71.5 -24t43.5 -62h-230q11 38 43 62t72 24zM698 92h-20v-31q0 -13 -9 -22t-21.5 -9t-21.5 9t-9 22v31h-291q-13 0 -22 9
t-9 21.5t9 21.5t22 9h372q12 0 21 -9t9 -21.5t-9 -21.5t-21 -9z" />
    <glyph glyph-name="more2" unicode="&#xe684;" 
d="M925 672h-620q-41 0 -66 -36l-223 -336l223 -335q25 -37 69 -37h617q35 0 59 24t24 59v578q0 35 -24 59t-59 24zM388 238q-26 0 -44 18t-18 44t18 44t44 18t44 -18t18 -44t-18 -44t-44 -18zM594.5 238q-25.5 0 -43.5 18t-18 44t18 44t43.5 18t44 -18t18.5 -44t-18.5 -44
t-44 -18zM801.5 238q-25.5 0 -44 18t-18.5 44t18.5 44t44 18t43.5 -18t18 -44t-18 -44t-43.5 -18z" />
    <glyph glyph-name="top1" unicode="&#xe625;" 
d="M951 805h-878q-27 0 -46.5 -19.5t-19.5 -46.5v-878q0 -27 19.5 -46.5t46.5 -19.5h878q27 0 46.5 19.5t19.5 46.5v878q0 27 -19.5 46.5t-46.5 19.5zM638 218v-231h-253l1 230h-164l290 281l295 -278zM825 520h-626v93h626v-93z" />
    <glyph glyph-name="xingxing1" unicode="&#xe626;" 
d="M749 178l37 -303l-274 130l-274 -130l37 303l-207 222l298 58l146 267l146 -267l298 -58zM631 420l-119 222l-119 -222l-242 -47l168 -185l-30 -251l223 108l223 -108l-30 251l168 185z" />
    <glyph glyph-name="guanzhu" unicode="&#xe627;" 
d="M723 742q-32 0 -65.5 -12t-58.5 -29t-45.5 -34t-30.5 -29l-11 -12q-4 5 -11 13t-30 27.5t-46.5 35t-57.5 28t-66 12.5q-36 0 -72.5 -9.5t-72 -30.5t-63 -51.5t-44.5 -76.5t-17 -101q0 -66 35 -144.5t90 -149.5t120 -137t126.5 -113t108.5 -71q47 24 108.5 71t126.5 113
t120 137t90 149.5t35 144.5q0 55 -17 101t-44.5 76.5t-63 51.5t-72 30.5t-72.5 9.5z" />
    <glyph glyph-name="xiaoxi" unicode="&#xe673;" 
d="M511 798q-136 0 -251 -57.5t-181.5 -156t-66.5 -214.5q0 -97 50 -184.5t142 -149.5q13 -9 27.5 -6t22.5 15t5.5 26.5t-15.5 23.5q-77 52 -119 124t-42 151q0 97 57.5 179t156 130t214.5 48t214.5 -48t156 -130t57.5 -178.5t-57.5 -178.5t-156 -130t-214.5 -48
q-1 0 -3.5 -0.5l-2.5 -0.5q-13 2 -24.5 -4t-15.5 -19q-10 -28 -105 -82q19 65 4 88q-12 18 -34 18q-14 0 -24.5 -10.5t-10.5 -25.5q0 -9 5 -18q-7 -36 -37 -111q-9 -22 8 -39q10 -10 25 -10q7 0 14 3q32 14 64.5 31t78.5 49t66 60q134 2 247 59.5t178.5 155.5t65.5 212
q0 116 -67 214.5t-182 156t-250 57.5v0zM320 438q-27 0 -46 -19t-19 -45.5t19 -45.5t45.5 -19t45.5 19t19 45.5t-19 45.5t-45 19v0zM512 438q-27 0 -45.5 -19t-18.5 -45.5t18.5 -45.5t45 -19t45.5 19t19 45.5t-19 45.5t-45 19v0zM704 438q-26 0 -45 -19t-19 -45.5t19 -45.5
t45.5 -19t45 19t18.5 45.5t-18.5 45.5t-45.5 19v0z" />
    <glyph glyph-name="quanxian" unicode="&#xe660;" 
d="M512 493q-27 0 -46 -19t-19 -45.5t19 -45.5t46 -19t46 19t19 45.5t-19 45.5t-46 19zM783 698q-151 0 -271 89q-120 -89 -271 -89q-53 0 -109 19v-426q0 -61 41 -141q42 -83 120 -169q70 -78 148 -137q29 -22 55 -37q11 -7 23 0q26 16 56 39q80 61 151 139q80 87 124 169
q42 79 42 137v426q-56 -19 -109 -19zM553 256v-186q0 -17 -12 -29t-29 -12v0q-17 0 -29 12t-12 29v186q-59 14 -97.5 62t-38.5 111q0 73 52 125t125 52t125 -52t52 -125q0 -63 -38.5 -111t-97.5 -62z" />
    <glyph glyph-name="pulldown" unicode="&#xe605;" 
d="M157 471h675q10 0 17 7t7 16.5t-7 16.5t-17 7h-675q-10 0 -17 -7t-7 -16.5t7 -16.5t17 -7zM960 394h-921q-9 0 -16 -7t-7 -16.5t7 -16.5t16 -7h921q10 0 17 7t7 16.5t-7 16.5t-17 7z" />
    <glyph glyph-name="xinxi01" unicode="&#xe629;" 
d="M467 377h90v-301h-90v301zM512 -153q-92 0 -176 36t-144.5 96.5t-96.5 144.5t-36 176t36 176t96.5 144.5t144.5 96.5t176 36t176 -36t144.5 -96.5t96.5 -144.5t36 -176t-36 -176t-96.5 -144.5t-144.5 -96.5t-176 -36zM512 632q-90 0 -166.5 -44.5t-121 -121t-44.5 -166.5
t44.5 -166.5t121 -121t166.5 -44.5t166.5 44.5t121 121t44.5 166.5t-44.5 166.5t-121 121t-166.5 44.5zM512 478zM457 478q0 23 16 39.5t39 16.5t39 -16.5t16 -39.5t-16 -39t-39 -16t-39 16t-16 39z" />
    <glyph glyph-name="zhichu" unicode="&#xe674;" 
d="M314 -10q-14 47 -14 86q0 6 5 41q-137 16 -221 59t-84 104v-108q0 -63 88 -113t226 -69zM450 364q5 0 14.5 0.5t13.5 0.5q106 63 234 63q20 0 61 -5q60 26 93.5 60.5t33.5 72.5v64q0 52 -60.5 96.5t-164 70t-225.5 25.5t-226 -25.5t-164 -70t-60 -96.5v-64
q0 -52 60 -96.5t164 -70t226 -25.5zM321 181q24 67 77 121q-113 4 -202.5 25.5t-142.5 59t-53 85.5v-108q0 -64 90 -114.5t231 -68.5zM356 -99l-12 20q-153 12 -248.5 56.5t-95.5 110.5v-108q0 -42 40 -79q54 -51 164.5 -82t245.5 -31q5 0 13 0.5t12 0.5q-73 44 -119 112z
M448 166h576v-168h-576v168z" />
    <glyph glyph-name="dianhua3" unicode="&#xe62a;" 
d="M522.5 776q-96.5 0 -185 -37.5t-152 -101.5t-101.5 -152t-38 -185t38 -185.5t101.5 -152t152 -101.5t185 -38t185 38t152 101.5t101.5 152t38 185.5t-38 185t-101.5 152t-152 101.5t-185 37.5zM708 81q-28 -28 -112 3.5t-170.5 118t-118 170.5t-4.5 112q3 2 11.5 11
t12.5 13t12.5 10.5t14 8.5t14.5 3t16.5 -2.5t17.5 -10.5t19 -19q18 -23 26 -39.5t4.5 -29.5t-9 -20.5t-19.5 -20.5l-5 -5q-25 -26 69 -120t120 -69q2 2 5 6q13 13 20.5 18.5t20.5 9t29.5 -4t39.5 -26.5q12 -9 19 -19t10.5 -17.5t2 -16.5t-3 -14.5t-8.5 -14t-10.5 -12.5
t-12.5 -12.5t-11 -10.5z" />
    <glyph glyph-name="mail1" unicode="&#xe68d;" 
d="M1006 468l-145 -88q-11 -7 -6 -18l151 -353v0v459v0zM26 516l461 -291q11 -7 22 0l492 300q0 1 5 1v22q0 37 -26.5 63t-63.5 26h-808q-37 0 -63.5 -26t-26.5 -63v-31q5 0 8 -1zM811 335q-5 11 -16 5l-285 -174l-11 -7q-1 -1 -1.5 -1h-1t-1 1t-11.5 8l-257 162
q-11 6 -16 -5l-163 -381q26 -24 60 -24h808q36 0 62 25zM161 370l-143 90v-451v-2.5v-2.5l149 347q5 12 -6 19z" />
    <glyph glyph-name="filter" unicode="&#xe636;" 
d="M911 727q10 -23 -8 -40l-281 -281v-424q0 -24 -23 -34q-7 -3 -14 -3q-15 0 -26 11l-146 146q-11 11 -11 26v278l-281 281q-18 17 -8 40q9 23 33 23h732q24 0 33 -23z" />
    <glyph glyph-name="chazhao" unicode="&#xe62d;" 
d="M957 -151l-68 -55q-8 -7 -18 -6t-16 9l-290 356q-74 -38 -159 -38q-94 0 -174.5 46.5t-127 127t-46.5 175t46.5 175t127 127t175 46.5t175 -46.5t127 -127t46.5 -174.5q0 -128 -83 -226l289 -355q6 -8 5 -18t-9 -16zM406.5 725q-108.5 0 -185 -76.5t-76.5 -185t76.5 -185
t185 -76.5t185 76.5t76.5 185t-76.5 185t-185 76.5z" />
    <glyph glyph-name="contact" unicode="&#xe616;" horiz-adv-x="1062" 
d="M986 896h-910q-32 0 -54 -22t-22 -54v-645q0 -31 22 -53t54 -22h189v-228l418 228h303q32 0 54 22t22 53v645q0 32 -22 54t-54 22zM265.5 441q-31.5 0 -53.5 22t-22 53.5t22 54t53.5 22.5t53.5 -22.5t22 -54t-22 -53.5t-53.5 -22zM531 441q-31 0 -53.5 22t-22.5 53.5
t22.5 54t53.5 22.5t53.5 -22.5t22.5 -54t-22.5 -53.5t-53.5 -22zM796.5 441q-31.5 0 -53.5 22t-22 53.5t22 54t53.5 22.5t53.5 -22.5t22 -54t-22 -53.5t-53.5 -22z" />
    <glyph glyph-name="quanxianxiugai" unicode="&#xe6e2;" 
d="M859 219l-39 38l1 1l-52 51l-232 -231q-6 -4 -8 -10l-48 -166q-4 -12 5 -21q6 -6 14 -6q3 0 6 1l167 49q5 1 9 6l234 232l-57 56v0zM559 -66l-20 20l26 89l12 -11l55 -4l3 -54l13 -13zM791 332l146 -146l33 31l-146 146zM1009 334l-70 70q-15 15 -35.5 15t-34.5 -14
l-21 -22l140 -140l21 22q14 14 14 34.5t-14 34.5zM511 213l54 49v84q51 6 116 18q35 8 62 31t37 55q27 82 27 163q0 83 -27 166q-10 32 -37 55t-62 33q-153 29 -277.5 29t-276.5 -29q-36 -10 -63 -33t-37 -55q-26 -82 -26 -163q0 -80 26 -164q10 -33 36.5 -55.5t63.5 -29.5
q56 -13 115 -21v-376l108 -98h27h28q0 1 -0.5 2.5t-1.5 3.5q-2 12 -2 21t1 14l2 5q36 126 46 159q4 15 10.5 28t10.5 18l4 5l62 62zM269 652q-22 0 -37.5 14.5t-15.5 34.5v49q0 11 54 17.5t134 6.5t134 -7t54 -17v-49q0 -20 -16 -34.5t-38 -14.5h-269z" />
    <glyph glyph-name="quxiao" unicode="&#xe664;" 
d="M600 871v-161q-18 0 -34 -0.5t-51.5 -4t-66 -10.5t-71 -21t-73.5 -33t-66.5 -49.5t-56 -68.5t-37 -92t-14.5 -117q0 -158 100 -275t249 -138q-93 20 -154 96.5t-61 176.5q0 42 9 77t22.5 60t35 45t42 32.5t49 21.5t49 13.5t49 7t43.5 3t37 0.5v-189l313 312z" />
    <glyph glyph-name="iconfontjilufuzhi" unicode="&#xe61c;" 
d="M824 829h-89v67h-446v-67h-89q-50 0 -80.5 -33.5t-30.5 -77.5v-735q0 -43 30.5 -77t80.5 -34h624q50 0 80.5 34t30.5 77v735q0 44 -30.5 77.5t-80.5 33.5zM556 651h201v-44h-201v44zM334 852h356v-90h-356v90zM801 50h-578v45h578v-45v0zM801 184h-578v44h578v-44v0z
M801 317h-578v45h578v-45v0zM801 451h-578v44h578v-44v0z" />
    <glyph glyph-name="chanp0101" unicode="&#xe64b;" 
d="M231 893q-94 0 -160 -66.5t-66 -160t66 -160t160 -66.5h227v227q0 93 -66.5 159.5t-160.5 66.5zM793.5 852q76.5 0 131 -54.5t54.5 -131t-54.5 -131t-131.5 -54.5h-185v186q0 76 54.5 130.5t131 54.5zM793 893q-93 0 -159.5 -66.5t-66.5 -159.5v-227h226q94 0 160.5 66.5
t66.5 160t-66.5 160t-160.5 66.5v0zM793.5 -122q93.5 0 160 66t66.5 160t-66.5 160t-160.5 66h-226v-226q0 -94 66.5 -160t160 -66zM231 -122q-94 0 -160 66t-66 160t66 160t160 66h227v-226q0 -94 -66.5 -160t-160.5 -66z" />
    <glyph glyph-name="xiadan" unicode="&#xe668;" 
d="M358 230h308v52h-308v-52zM717 435h-410v-51h410v51zM973 896h-922q-21 0 -36 -15t-15 -36v-410q0 -21 15 -36t36 -15h128v-461q0 -21 15 -36t36 -15h384l231 230v282h128q21 0 36 15t15 36v410q0 21 -15 36t-36 15zM589 -77v179q0 11 7.5 18.5t17.5 7.5h180zM896 435
h-51v179h-51v-435h-205q-21 0 -36 -15t-15 -36v-205h-282q-11 0 -18.5 8.5t-7.5 20.5v662h-51v-179h-51v282h768v-282zM666 589h-308v-51h308v51z" />
    <glyph glyph-name="desktophdcopy2" unicode="&#xe60c;" 
d="M140 663h-47v-698h745v489v-210h-93v-186h-559v349v70h-93v186h47zM656 607l98 -97l-223 -349l-196 28l-23 195zM768 761q61 -47 74 -60q9 -9 24 -27.5t26 -32.5l11 -15l-112 -74q-46 37 -56 46l-37 51z" />
    <glyph glyph-name="email" unicode="&#xe68e;" 
d="M748 273q0 -33 10 -46.5t34 -13.5q54 0 85.5 64.5t31.5 177.5q0 84 -29.5 150t-81.5 107.5t-120 62.5t-148 21q-82 0 -155.5 -27.5t-131.5 -78.5t-91.5 -132t-33.5 -181q0 -193 117 -298.5t319 -105.5q67 0 120 9t122 32l20 -83q-118 -38 -264 -38q-255 0 -393.5 130
t-138.5 354q0 146 66 260t182.5 176t263.5 62q112 0 203 -32t149 -88.5t88.5 -130.5t30.5 -159q0 -338 -249 -338q-66 0 -105 27.5t-45 82.5q-16 -60 -56.5 -85t-104.5 -25q-85 0 -141 64.5t-56 183.5q0 126 57.5 198t162.5 72q109 0 143 -76l36 65h103v-361v0zM597 435
q0 47 -28.5 71.5t-63.5 24.5q-40 0 -68 -35t-28 -110q0 -64 26 -99t70 -35q35 0 63.5 24t28.5 73v86z" />
    <glyph glyph-name="fapiaoguanli" unicode="&#xe676;" 
d="M992 566l-480 330l-480 -330l480 -330zM512 162l-424 281l-56 -59l480 -330l480 330l-57 60zM512 -20l-424 281l-56 -59l480 -330l480 330l-57 60z" />
    <glyph glyph-name="huiyiting" unicode="&#xe632;" horiz-adv-x="1423" 
d="M465 293h95l16 95v-20q0 -58 17.5 -67.5t123.5 -7.5h97q16 0 26.5 5.5t15.5 13t7 21.5t1.5 25t-1.5 30.5t-1 31.5q5 -4 17 -17.5t22.5 -23.5t28.5 -16.5t36.5 -2.5t46.5 25.5t60 60.5q5 7 12 15t8.5 10t4.5 7.5t2.5 6.5t0.5 8t0 12t-1 17v25q-31 7 -48.5 7t-24.5 -4.5
t-13 -13t-11 -17.5t-21 -19t-41 -17q-9 17 -19.5 37.5t-14.5 27.5t-9.5 17t-9 12t-9 7t-14 7t-18 6.5t-27.5 11.5t-38 17q-3 -16 -7 -38t-6 -30t-10.5 -20t-23.5 -23q0 24 3 40t4.5 20.5t0 12t-7.5 22.5q-7 -2 -13.5 -3.5t-9 -1.5t-6 -1.5t-4 -2.5t-3 -5.5t-3.5 -9t-5 -15
t-8 -20.5q-5 -13 -5.5 -20.5t-6.5 -15.5q-2 27 -8.5 50t-6.5 61q-21 -10 -49 -18.5t-43 -13.5t-32 -21.5t-30 -46.5q-37 -90 -37 -233v0zM1131 199q-47 34 -63 94h-48q3 -33 14.5 -58.5t36.5 -60.5t34 -50q4 -7 30 -47t40 -67t20 -49h-967q7 30 49.5 94t86 131.5t54.5 106.5
q-26 -2 -47 -14t-39.5 -37.5t-33.5 -51t-40.5 -69t-48.5 -78.5q-2 -2 -6 -8q-20 -29 -29 -42t-20.5 -33t-15.5 -27t-5 -19t0.5 -15t11.5 -9t18 -6t30.5 -2t38 -1.5t50.5 1.5h72h936q-1 36 -15 71t-34.5 63.5t-42 56t-40.5 60.5t-27 66v0zM212 388q-8 10 -10.5 12t-3.5 4
t-1 2.5t-2.5 5.5t-8.5 14q-2 2 -4 6q-26 38 -35 47t-37 23q-15 8 -25 13q-28 -24 -46 -58t-26.5 -67t-11 -84.5t-1.5 -91t3.5 -107.5t2.5 -114h142q20 29 45.5 66.5t37 54t26.5 41t20 34t11 27.5t5.5 26.5t-2 26.5t-6 32t-11.5 38q-4 9 -11.5 36t-11.5 38t-14.5 27.5
t-24.5 26.5v-79v0zM1211 388v79q-20 -22 -32 -47q-27 -53 -37.5 -103t-10.5 -118q27 -20 71.5 -87.5t71.5 -118.5h143q0 46 2 114t3 107.5t-1.5 91t-11 84.5t-26 67t-46.5 58q-9 -5 -25 -13q-28 -14 -37 -23t-34 -46q-3 -5 -5 -7q-5 -9 -8 -14t-3 -5.5t-1 -2t-3.5 -4.5
t-9.5 -12v0zM719 626q25 0 46 14t31.5 29.5t26.5 44t23 38.5q-28 120 -102 141q-56 15 -102 -30q-50 -47 -40 -115q6 -41 35 -77q35 -45 82 -45v0zM53 689q0 -101 64 -140q47 -28 90 -5q36 20 36 66q0 6 0.5 24.5t0.5 28t-1 27.5t-3.5 28.5t-7 25t-11.5 23t-17 17t-24 12.5
t-32 4q-44 0 -69.5 -31t-25.5 -80v0zM1179 689q0 -147 63 -159q42 -7 86 44q41 49 41 99q0 84 -47.5 115.5t-95 0t-47.5 -99.5v0z" />
    <glyph glyph-name="jilu" unicode="&#xe61d;" 
d="M513 831q-91 0 -174 -35.5t-142.5 -95.5t-95 -142.5t-35.5 -173.5t35.5 -173.5t95 -142.5t142.5 -95.5t174 -35.5t173.5 35.5t142.5 95.5t95.5 142.5t35.5 173.5t-35.5 173.5t-95.5 142.5t-142.5 95.5t-173.5 35.5zM745 159l-3 -4q-9 -9 -22.5 -7.5t-24.5 12.5l-214 215
h-1v278q0 13 8.5 22.5t20.5 9.5h6q12 0 20.5 -9.5t8.5 -22.5v-251l195 -197q11 -11 13 -24.5t-7 -21.5z" />
    <glyph glyph-name="edit1" unicode="&#xe691;" 
d="M867 687q17 17 17 41t-16 40l-101 102q-16 17 -39.5 17t-40.5 -17l-62 -63l180 -183zM339 158l-172 175l-53 -153l74 -76zM787 604l-181 184l-425 -431l182 -184zM104 151l-31 -89l87 32zM72 -60v-68h880v68h-880z" />
    <glyph glyph-name="c-invoice" unicode="&#xe677;" 
d="M941 895h-858q-34 0 -58 -24t-24 -58v-858q0 -34 24 -58t58 -24h858q34 0 58 24t24 58v858q0 34 -24 58t-58 24zM124 646h300v-64h-300v64zM124 486h337v-63h-337v63zM124 327h337v-64h-337v64zM534 104h-410v63h410v-63zM905 276q-10 -133 -162 -143v-51h-53v53
q-132 15 -157 151l78 22q10 -107 119 -105q95 0 95 75q12 54 -109 81q-176 36 -166 143q6 125 140 139v43h53v-43q125 -12 150 -137l-78 -22q-17 90 -97 88q-87 -3 -89 -68q-5 -44 99 -68q91 -18 135 -57.5t42 -100.5z" />
    <glyph glyph-name="wode" unicode="&#xe633;" 
d="M633 330q77 36 124.5 108t47.5 160q0 122 -87 209t-210.5 87t-211 -87t-87.5 -209q0 -88 47.5 -160t125.5 -108q-147 -43 -243 -169.5t-101 -288.5h47h845h46q-4 162 -100 288.5t-243 169.5z" />
    <glyph glyph-name="qizhi" unicode="&#xe634;" 
d="M734 813q-105 0 -182 42q-76 41 -181 41q-83 0 -182 -54v-456q99 54 182 54q105 0 181.5 -41.5t181.5 -41.5q79 0 182 56v456q-103 -56 -182 -56zM121.5 896q-16.5 0 -28.5 -12t-12 -28v-890q0 -16 12 -28t28.5 -12t28.5 12t12 28v890q0 16 -12 28t-28.5 12z" />
    <glyph glyph-name="103" unicode="&#xe606;" 
d="M359 624h486v-77h-486v77zM189 624h77v-77h-77v77zM359 423h486v-78h-486v78zM189 423h77v-78h-77v78zM359 221h486v-77h-486v77zM189 221h77v-77h-77v77zM1000 -128h-976q-10 0 -17 7t-7 17v976q0 10 7 17t17 7h976q10 0 17 -7t7 -17v-976q0 -10 -7 -17t-17 -7zM49 -79
h926v926h-926v-926z" />
    <glyph glyph-name="jindu1" unicode="&#xe678;" horiz-adv-x="1025" 
d="M132 734v-143q0 -9 6.5 -15.5t15.5 -6.5h704q10 0 16 6.5t6 15.5v143q0 9 -6 15.5t-16 6.5h-704q-9 0 -15.5 -6.5t-6.5 -15.5zM1024 458q0 9 -6.5 15.5t-15.5 6.5h-848q-9 0 -15.5 -6.5t-6.5 -15.5v-143q0 -9 6.5 -15.5t15.5 -6.5h848q9 0 15.5 6.5t6.5 15.5v143v0z
M713 182q0 9 -6.5 15.5t-16.5 6.5h-536q-9 0 -15.5 -6.5t-6.5 -15.5v-143q0 -9 6.5 -15.5t15.5 -6.5h536q10 0 16.5 6.5t6.5 15.5v143v0zM74 -92v952q0 15 -11 25.5t-26 10.5t-26 -10.5t-11 -25.5v-952q0 -15 11 -25.5t26 -10.5t26 10.5t11 25.5z" />
    <glyph glyph-name="wode1" unicode="&#xe635;" horiz-adv-x="1026" 
d="M491 834q161 2 271.5 -75t163.5 -203q32 -74 33 -166t-30 -169q-39 -96 -111 -164t-172 -100q-18 -5 -75 -16q-6 -1 -17.5 -2t-16.5 -1h-39q-8 0 -23 1t-23 2q-69 13 -111 30q-196 81 -260 290q-13 42 -17.5 90.5t4.5 99.5q12 64 21 86q76 195 267 270q26 10 87 22
q8 1 24 2.5t24 2.5zM492 764q-9 -1 -25.5 -3t-24.5 -3q-49 -11 -86 -27q-77 -34 -130.5 -96.5t-78.5 -148.5q-25 -83 -10 -157q9 -47 17 -68q18 -51 47 -93q5 -5 14 -16.5t13 -16.5q1 0 2 0.5t1 1.5q2 2 5.5 6t5.5 6q3 3 9 8.5t9 8.5q2 1 8 2.5t9 2.5q7 3 20.5 8t20.5 7
q98 43 135 91v42q-52 28 -52 98q-16 -3 -20.5 6.5t-4.5 30.5q0 14 0.5 21t5.5 13.5t15 4.5v1q-8 27 3 63q13 47 56.5 75t95.5 7q84 -34 73 -146q10 2 15 -4.5t5.5 -14t0.5 -20.5q0 -21 -4.5 -30.5t-20.5 -6.5q1 -66 -51 -98v-42l12.5 -12.5t13.5 -12.5q29 -24 58 -41
q25 -15 75 -35q6 -1 16.5 -4.5l16.5 -5.5q7 -3 17 -15.5t14 -15.5q13 10 39 52q27 44 42.5 97.5t14 115.5t-22.5 117q-76 196 -289 241q-23 5 -85 6z" />
    <glyph glyph-name="qqqun" unicode="&#xe694;" 
d="M364 122q-29 2 -42 38q-22 61 13 152q14 36 43 73q-4 14 -4 27q0 42 38 77q13 93 80 156q23 22 50 37q-66 69 -159 69q-87 0 -151 -61t-73 -150q-36 -29 -36 -63q0 -15 9 -31q-35 -40 -50 -79q-31 -81 -13 -131q8 -21 19.5 -20.5t22.5 20.5q5 8 16 26q16 -50 52 -90
q-24 -7 -34 -16q-20 -17 -21 -36t16 -34q24 -22 94 -24.5t125 24.5q13 -1 24 -1q8 15 23 28v0q3 3 7 5l-12 20q-17 -18 -37 -16zM943 304v0q-14 36 -47 74q9 15 9 30q0 31 -34 59q-9 83 -69 140t-141.5 57t-141.5 -57t-68 -140q-34 -28 -34 -59q0 -15 8 -30q-32 -37 -47 -74
q-29 -76 -12 -123q7 -19 18 -18.5t22 18.5q4 8 14 25q16 -47 50 -85q-23 -7 -32 -14q-19 -16 -20.5 -34t15.5 -32q23 -21 88.5 -23.5t116.5 22.5q12 -1 23 -1t24 2q51 -26 117 -23.5t89 23.5q16 14 15 32t-20 34q-10 8 -34 15q34 37 49 84q10 -17 15 -25q10 -18 21 -18.5
t18 18.5q18 47 -12 123z" />
    <glyph glyph-name="xinxi" unicode="&#xe637;" 
d="M511 -63q-91 0 -174 35.5t-143 95.5t-95.5 143t-35.5 173.5t35.5 173.5t95.5 143t143 95.5t174 35.5t174 -35.5t143 -95.5t95.5 -143t35.5 -173.5t-35.5 -173.5t-95.5 -143t-143 -95.5t-174 -35.5v0zM575 641h-128v-128h128v128zM575 449h-128v-321h128v321z" />
    <glyph glyph-name="qian" unicode="&#xe638;" 
d="M693 892q-108 0 -184.5 -27t-76.5 -65v-156q0 -4 1 -9q10 -34 84.5 -57t176 -23t176 23t84.5 57q1 5 1 9v156q0 38 -76.5 65t-185.5 27v0zM908 787q-16 -12 -47 -22q-70 -23 -167.5 -23t-167.5 23q-31 10 -48 22q-10 8 -11 13q1 4 11 12q17 12 48 22q70 23 167.5 23
t167.5 -23q31 -10 47 -22q11 -8 12 -12q-1 -5 -12 -13v0zM813 547q-57 -10 -119.5 -10t-119.5 10q-142 26 -142 77v-61q-49 7 -103 7q-108 0 -185 -27t-77 -65v-156q0 -4 2 -9q9 -34 84 -57t176 -23q54 0 103 7l14 2q12 2 23 5q50 11 82.5 28.5t38.5 37.5q1 5 1 9v-21
q0 -41 -97 -66q-13 -4 -27 -7q-9 -2 -19 -3q-8 -2 -16 -3q-50 -8 -103 -8q-63 0 -119 11q-143 26 -143 76v-155q0 -4 2 -9q9 -34 84 -57t176 -23q76 0 140 13q51 11 83 28.5t38 38.5q1 5 1 9v-21q0 -41 -96 -67q-21 -5 -47 -10q-56 -10 -119 -10t-119 10q-143 26 -143 77
v-156q0 -4 2 -8q9 -34 84 -57.5t176.5 -23.5t176 23.5t84.5 57.5q1 4 1 8v66q49 -8 102 -8q102 0 176.5 23.5t84.5 57.5q1 4 1 8v156q0 -51 -142 -77q-57 -10 -120 -10q-53 0 -102 8v17q49 -7 102 -7q102 0 176.5 23.5t84.5 57.5q1 4 1 8v156q0 -51 -142 -77
q-57 -10 -120 -10q-53 0 -102 8v17q49 -7 102 -7q102 0 176.5 23.5t84.5 57.5q1 4 1 8v156q0 -51 -142 -77v0zM544 465q-17 -12 -47 -22q-20 -6 -42 -11q-9 -2 -17 -3q-3 -1 -6 -1q-49 -8 -103 -8q-97 0 -167 23q-31 10 -48 22q-10 8 -12 13q2 4 12 12q17 12 48 22
q70 23 167 23q54 0 103 -8q36 -5 65 -15q30 -10 47 -22q10 -8 12 -12q-2 -5 -12 -13v0z" />
    <glyph glyph-name="kehu" unicode="&#xe66c;" 
d="M580 339q-33 28 -56.5 41.5t-29.5 12.5l-6 -1q-51 -28 -106 -28q-59 0 -113 32q-101 -47 -169.5 -167t-79.5 -275l725 -2q-8 117 -57 227t-108 160zM382 1l-53 56l48 254l-27 38q6 7 32.5 7t32.5 -7l-27 -38l48 -254zM270 410q53 -32 113 -32q54 0 105 28q52 28 83 79
t31 112q0 91 -64.5 155t-155 64t-155 -64t-64.5 -155q0 -58 29 -108t78 -79zM892 214q-22 19 -38 28t-20 8h-4q-35 -19 -72 -19q-40 0 -76 22q-69 -33 -115 -114t-54 -186l491 -1q-6 79 -39 153.5t-73 108.5zM758 -15l-36 38l33 172l-19 25q4 5 22 5.5t22 -5.5l-18 -25
l33 -172zM682 262q36 -22 76 -22q37 0 72 19t56 53.5t21 76.5q0 61 -43.5 104.5t-105 43.5t-105 -43.5t-43.5 -104.5q0 -40 19.5 -73.5t52.5 -53.5z" />
    <glyph glyph-name="zhongxue" unicode="&#xe608;" 
d="M912 50h-29v509q0 10 -7 17.5t-17 7.5h-254q-10 0 -16.5 -7.5t-6.5 -17.5v-509h-68v641q0 10 -7 17.5t-17 7.5h-324q-10 0 -17 -7.5t-7 -17.5v-641h-29q-12 0 -20 -8t-8 -20t8 -20.5t20 -8.5h800q12 0 20 8t8 21q-1 12 -9 20t-20 8zM208 649h86v-87h-86v87zM208 528h86
v-87h-86v87zM208 407h86v-88h-86v88zM208 285h86v-87h-86v87zM382 50h-109v82h110v-82h-1zM447 198h-86v87h86v-87zM447 319h-86v88h86v-88zM447 441h-86v87h86v-87zM447 563h-86v87h86v-87zM635 530h70v-70h-70v70zM635 432h70v-71h-70v71zM635 333h70v-71h-70v71zM635 234
h70v-70h-70v70zM776 50h-88v61h88v-61zM828 165h-69v71h69v-71zM828 263h-69v70h69v-70zM828 361h-69v71h69v-71zM828 460h-69v70h69v-70z" />
    <glyph glyph-name="officeadd" unicode="&#xe693;" 
d="M1016 166h-157v152h-111v-152h-147v-106h147v-163h111v163h157v106zM697 -11h-157v233h157v10q-30 20 -35 25q-16 15 -16 26q0 5 -5 12.5t-5 12.5v25q0 7 2.5 13t7 13t5.5 10q16 15 36 25v0l2 2l1 2l2 1l2 2l1 1l1 1l1 1l1 1l1 1l1 1v1l2 1v0q0 5 5 13t5 13q0 3 5 13.5
t5 21.5q8 0 10 1.5t6 8.5l15 16q15 5 15 25q0 3 2.5 10.5t2.5 14t-5 10.5q0 16 -10 26q0 5 -5 12.5t-5 12.5v76q0 4 -0.5 7.5t-1 7.5t-0.5 6.5t-1.5 6.5t-1.5 5.5t-2 6t-2.5 6t-3 7.5t-2.5 8q-18 43 -36 66q-5 5 -13 15t-14.5 16.5t-13.5 8.5q-7 5 -25 13t-25 13
q-9 6 -29 10t-22 5h-51v0v0h-50q-7 0 -15.5 -2.5t-20 -7t-15.5 -5.5q-8 -5 -25.5 -13t-25.5 -13q-24 -8 -40 -40q-22 -22 -31 -66q-4 -11 -9 -34.5t-11 -31.5q0 -8 -2 -23.5t-2 -28.5t4 -24q-5 -10 -5 -25q0 -5 -5 -13t-5 -13v-35q0 -5 5 -12.5t5 -13.5q0 -4 1.5 -5.5
t5.5 -3.5t8 -6q6 0 10 -5t5 -5q0 -4 5.5 -14t5.5 -21q0 -5 5 -13t5 -13q0 -7 5 -11t10 -4q5 -5 17.5 -12.5t17.5 -12.5q7 -6 9.5 -9.5t4.5 -10t2 -16.5v-25q0 -15 -11 -25q0 -6 -6.5 -14.5t-8.5 -11.5q-15 -15 -35 -25q-7 -5 -16 -8.5t-23 -8.5t-22 -8q-9 -4 -43 -15
t-63 -21.5t-36 -14.5q-1 -1 -7 -3t-7 -2.5l-6 -3t-6.5 -3t-5.5 -2.5t-6 -3.5t-5.5 -3.5t-6 -4t-5.5 -5l-6 -6q-15 -10 -35 -61q-10 -40 -10 -76q0 -20 15 -50q3 -4 9 -6.5t10 -3.5t15 -2.5t16 -2.5q181 -37 325 -41v0h76h20h76v0q66 0 102 10v102h30v5z" />
    <glyph glyph-name="zhengfu" unicode="&#xe609;" 
d="M920 41h-62v52h-688v-52h-60v-50h-46v-52h900v52h-44v50zM318 135v261h30v34q0 16 -11 27t-27 11h-132q-16 0 -27 -11t-11 -27v-34h32v-261h146zM858 135v261h32v34q0 16 -11.5 27t-26.5 11h-133q-16 0 -27 -11t-11 -27v-34h32v-261h145v0zM587 135v261h32v34
q0 16 -11 27t-27 11h-133q-15 0 -26.5 -11t-11.5 -27v-34h31v-261h146zM545 822q-34 19 -69 0l-399 -220q-19 -11 -30 -30t-11 -41v-25h950v25q0 22 -11 41t-31 30zM359 614q-6 0 -8 6.5t4 10.5l121 66q35 20 69 0l121 -66q6 -4 4 -10.5t-8 -6.5h-303z" />
    <glyph glyph-name="jia1" unicode="&#xe63b;" 
d="M410 486h-308q-42 0 -72 -30t-30 -72.5t30 -72t72 -29.5h308v-324q0 -36 30 -61t72 -25t72 25t30 61v324h308q42 0 72 30t30 72.5t-30 72t-72 29.5h-308v324q0 36 -30 61t-72 25t-72 -25t-30 -61v-324v0z" />
    <glyph glyph-name="shouruliushui" unicode="&#xe679;" 
d="M506 173q20 91 88 154q53 47 112 67.5t106 18t86 -13.5t61 -22t22 -12l-3 106v346q0 33 -22.5 56t-54.5 23h-824q-32 0 -54.5 -23t-22.5 -56v-869q0 -27 16.5 -48.5t42.5 -27.5h564q-7 4 -14.5 9.5t-20.5 17t-23.5 24.5t-24 32.5t-21 41t-14.5 49.5t-5.5 58.5t6.5 68.5v0
zM243 637h487q14 0 24 -10t10 -24t-10 -24t-24 -10h-487q-14 0 -24 10t-10 24t10 24t24 10v0zM470 302h-220q-15 0 -24.5 10t-9.5 24t9.5 24t24.5 10h220q14 0 24 -10t10 -24t-10 -24t-24 -10v0zM794 347q-95 0 -162.5 -67.5t-67.5 -163.5t67.5 -163.5t162.5 -67.5
t162.5 67.5t67.5 163.5t-67.5 163.5t-162.5 67.5v0zM900 262l-81 -143h65q4 0 4 -4v-24q0 -4 -4 -4h-72v-23h72q4 0 4 -4v-24q0 -4 -4 -4h-72v-66q0 -4 -3 -4h-30q-3 0 -3 4v66h-71q-4 0 -4 4v24q0 4 4 4h71v23h-71q-4 0 -4 4v24q0 4 4 4h64l-80 143q-1 2 0 4t4 2h33
q3 0 4 -2l64 -116l66 116q1 2 3 2h33q3 0 4 -2t0 -4v0z" />
    <glyph glyph-name="revenue" unicode="&#xe67b;" 
d="M321 265q24 67 77 121q-113 4 -202.5 25.5t-142.5 59t-53 85.5v-108q0 -64 90 -114.5t231 -68.5zM450 448q5 0 14.5 0.5t13.5 0.5q106 63 234 63q20 0 61 -5q60 26 93.5 60.5t33.5 72.5v64q0 52 -60.5 96.5t-164 70t-225.5 25.5t-226 -25.5t-164 -70t-60 -96.5v-64
q0 -52 60 -96.5t164 -70t226 -25.5zM314 74q-14 47 -14 86q0 6 5 41q-137 16 -221 59t-84 104v-108q0 -63 88 -113t226 -69zM356 -15l-12 20q-153 12 -248.5 56.5t-95.5 110.5v-108q0 -42 40 -79q54 -51 164.5 -82t245.5 -31q5 0 13 0.5t12 0.5q-73 44 -119 112v0zM825 250
v199h-167v-199h-210v-168h210v-209h167v209h199v168h-199z" />
    <glyph glyph-name="lock" unicode="&#xe6d5;" 
d="M695 422h-366v137q0 76 53.5 129.5t129.5 53.5t129.5 -53.5t53.5 -129.5v-137v0zM100 353v-412q0 -29 20 -49t49 -20h686q29 0 49 20t20 49v412q0 29 -20 49t-49 20h-22v137q0 132 -94.5 226.5t-226.5 94.5t-226.5 -94.5t-94.5 -226.5v-137h-22q-29 0 -49 -20t-20 -49v0z
" />
    <glyph glyph-name="qiandai" unicode="&#xe67d;" 
d="M387 635h242q21 0 42.5 16.5t37 40.5t28 48t18.5 41l6 16q0 22 -2 35t-10.5 26.5t-27 19.5t-48.5 7q-28 1 -52 -7.5t-38 -20t-33.5 -21t-39.5 -9.5q-31 0 -80.5 26.5t-86.5 31.5q-27 4 -45.5 -2t-27 -20t-12 -29.5t-3.5 -36.5q0 -1 6.5 -17t18.5 -40t27.5 -47.5t37 -40.5
t42.5 -17zM642 585h-255q-45 0 -86.5 -19.5t-72 -50.5t-58 -75t-46.5 -87t-35.5 -93t-25.5 -86.5t-16.5 -74.5t-9 -50.5t-2.5 -19.5q0 -56 39 -101t93 -45h695q54 0 93.5 45t39.5 101l-18 99q-63 287 -188 398q-67 59 -147 59zM671 158q13 0 22 -9t9 -22t-9 -22t-22 -9h-125
v-81q0 -13 -9 -22t-21.5 -9t-22 9t-9.5 22v81h-126q-12 0 -21 9t-9 22t9 22t21 9h126v39h-126q-12 0 -21 9t-9 21.5t9 22t21 9.5h86l-88 155q-6 11 -2.5 23t14.5 18.5t23 3.5t19 -15l105 -185h5l105 185q7 12 19 15t23 -3.5t14.5 -18.5t-2.5 -23l-88 -155h80q13 0 22 -9.5
t9 -22t-9 -21.5t-22 -9h-125v-39h125z" />
    <glyph glyph-name="sort" unicode="&#xe670;" 
d="M418 -58h-151v578h-184l335 307v-885zM604 826h151v-574h184l-335 -308v882zM604 826z" />
    <glyph glyph-name="bao" unicode="&#xe67e;" 
d="M515 -110q-42 63 -103 99.5t-146 62.5q-212 66 -187 324q8 73 30 178q4 23 3.5 46.5t-3 42t-10.5 44t-14 40t-17 41.5q-2 3 -7 12.5t-7 14.5t1 12.5t12 13.5q8 4 16.5 13t14.5 16t15.5 13.5t19.5 6t26 -6.5q171 -80 337 1q19 9 37 0q168 -82 337 -1q10 5 18.5 6
t15.5 -2.5t12 -7t12.5 -9.5t11.5 -9q25 -16 29.5 -35t-10.5 -46q-17 -29 -26.5 -62t-12 -58t1 -65.5t6.5 -60.5t11 -65q17 -95 4 -204q-7 -62 -42.5 -106.5t-95.5 -69.5q-11 -4 -35.5 -13t-37.5 -14q-35 -15 -50.5 -21.5t-45.5 -22.5t-47 -29t-38 -34t-36 -45zM643 441
q-6 33 -2.5 38.5t31.5 6.5q54 4 75 25.5t21 75.5v39v39q1 19 -7 26t-27 7h-198q-83 0 -97 -14t-14 -98q0 -70 12 -82.5t82 -17.5l2 -1q4 0 9 -3.5t11.5 -10t9.5 -8.5q-4 -2 -10.5 -8t-11.5 -9t-10 -4h-132v-54q25 -1 71 -4q-5 -65 -53 -129q-5 -7 -9.5 -17t-8.5 -23t-6 -20
q71 19 106 66.5t55 123.5q9 -20 10 -44q1 -106 0 -152q-1 -22 9.5 -28t33.5 -6q22 0 32 6.5t9 28.5q-1 37 0 157q0 2 4 37q10 4 12 5q26 -153 141 -199q3 1 8.5 4t7.5 4q-34 72 -90 188h52q12 0 18 1t12 7t6 19t-6 19.5t-12.5 8t-19.5 1t-126 -0.5zM286 494q0 -258 -1 -294
q0 -25 7.5 -35.5t33.5 -10.5q25 1 35 10.5t10 35.5q-3 193 0 309q0 15 2.5 33t4.5 30t6.5 34t6.5 31q1 5 19 74q-21 6 -32.5 7t-20.5 1t-15 -7.5t-9.5 -15t-11.5 -25.5q-11 -28 -41.5 -76.5t-34.5 -56.5q-2 -3 -21 -53q2 -1 6 -3.5t6 -2.5q35 10 50 15zM686 642q3 -22 3 -23
q2 -51 -8 -61t-62 -10h-58q-39 0 -53.5 21t-1.5 59q2 4 9 8.5t12 5.5h159z" />
    <glyph glyph-name="blacktie" unicode="&#xe631;" 
d="M73 823h878v-878h-878v878zM693 186l-126 360l126 170h-362l126 -170l-126 -360l181 -174z" />
    <glyph glyph-name="bookmarko" unicode="&#xe63a;" 
d="M805 750h-586v-710l242 232l51 49l51 -49l242 -232v710zM811 823q14 0 26 -5q18 -8 29.5 -24t11.5 -35v-737q0 -19 -11.5 -35t-29.5 -24q-11 -4 -26 -4q-27 0 -47 18l-252 242l-252 -242q-21 -19 -47 -19q-14 0 -26 5q-18 8 -29.5 24t-11.5 35v737q0 19 11.5 35t29.5 24
q12 5 26 5h598z" />
    <glyph glyph-name="bookmark" unicode="&#xe646;" 
d="M811 823q14 0 26 -5q18 -8 29.5 -24t11.5 -35v-737q0 -19 -11.5 -35t-29.5 -24q-11 -4 -26 -4q-27 0 -47 18l-252 242l-252 -242q-21 -19 -47 -19q-14 0 -26 5q-18 8 -29.5 24t-11.5 35v737q0 19 11.5 35t29.5 24q12 5 26 5h598z" />
    <glyph glyph-name="check" unicode="&#xe688;" 
d="M955 572.5q0 -22.5 -16 -38.5l-414 -414l-78 -78q-16 -16 -38.5 -16t-38.5 16l-78 78l-207 207q-16 16 -16 39t16 39l78 77q16 16 39 16t39 -16l168 -168l374 375q16 16 39 16t39 -16l78 -78q16 -16 16 -38.5z" />
    <glyph glyph-name="commenting" unicode="&#xe67f;" 
d="M366 384q0 30 -21.5 51.5t-52 21.5t-52 -21.5t-21.5 -51.5t21.5 -51.5t52 -21.5t52 21.5t21.5 51.5zM585 384q0 30 -21.5 51.5t-51.5 21.5t-51.5 -21.5t-21.5 -51.5t21.5 -51.5t51.5 -21.5t51.5 21.5t21.5 51.5zM805 384q0 30 -21.5 51.5t-52 21.5t-52 -21.5t-21.5 -51.5
t21.5 -51.5t52 -21.5t52 21.5t21.5 51.5zM1024 384q0 -99 -68.5 -183.5t-186.5 -133.5t-257 -49q-63 0 -121 11q-98 -99 -248 -131q-30 -6 -49 -8q-7 0 -13 4t-7 10q-3 9 11 21q3 3 13.5 12.5t14.5 13.5t13.5 14.5t14 18t11.5 21t11 27.5t8.5 33t7.5 41q-84 52 -131.5 124
t-47.5 154q0 99 68.5 183.5t186.5 133.5t257 49t257 -49t186.5 -133.5t68.5 -183.5z" />
    <glyph glyph-name="commentso" unicode="&#xe649;" 
d="M402.5 677q-87.5 0 -163.5 -30t-121 -81t-45 -109q0 -47 30.5 -90.5t85.5 -75.5l55 -32l-20 -48q19 12 35 23l26 17l30 -5q44 -8 87 -8q88 0 164 29.5t120.5 80.5t44.5 109t-44.5 109t-120.5 81t-163.5 30zM402 750q109 0 202 -39.5t147 -106.5t54 -146.5t-54 -147
t-147 -106.5t-202 -39q-49 0 -100 9q-71 -51 -159 -73q-21 -6 -49 -10h-2q-6 0 -11.5 5t-6.5 12q-1 2 -1 4t3 3.5t1 3.5l2 3l2 3l2 3l2 3l3 2q3 4 13 14.5t14.5 16.5t13 16.5t14.5 22t12 25.5q-71 41 -111.5 101t-40.5 128q0 80 53.5 147t146.5 106.5t202 39.5h-3zM875 82
q5 -14 11 -25.5t14.5 -22t13 -16.5t15 -17t12.5 -14q1 -1 2.5 -3t2.5 -2.5t2.5 -2.5t2.5 -4l1 -2l1 -4l3 -4l-1 -3q-1 -8 -7 -12.5t-13 -4.5q-28 4 -49 9q-88 23 -159 73q-51 -9 -100 -9q-155 0 -270 76q33 -3 50 -3q92 0 177 26t151 74q71 52 109.5 121t38.5 145
q0 44 -13 87q73 -41 116 -102t43 -131q0 -69 -40.5 -128.5t-111.5 -100.5h-2z" />
    <glyph glyph-name="comments" unicode="&#xe64a;" 
d="M805 457q0 -79 -54 -146.5t-147 -106.5t-202 -39q-49 0 -100 9q-71 -51 -159 -73q-21 -6 -49 -10h-2q-6 0 -11.5 5t-6.5 12q-1 2 -1 4t3 3.5t1 3.5l2 3l2 3l2 3l2 3l3 2q3 4 13 14.5t14.5 16.5t13 16.5t14.5 22t12 25.5q-71 41 -111.5 101t-40.5 128q0 80 53.5 147
t146.5 106.5t202 39.5t202 -39.5t146.5 -106.5t53.5 -147h-2zM1027 311q0 -69 -41 -128.5t-111 -100.5q5 -14 11 -25.5t14.5 -22t13 -16.5t15 -17t12.5 -14q1 -1 2.5 -3t2.5 -2.5t2.5 -2.5t2.5 -4l1 -2l1 -4l3 -4l-1 -3q-1 -8 -7 -12.5t-13 -4.5q-28 4 -49 9q-88 23 -159 73
q-51 -9 -100 -9q-155 0 -270 76q33 -3 50 -3q92 0 177 26t151 74q71 52 109.5 121t38.5 145q0 44 -13 87q73 -41 116 -102t43 -131h-2z" />
    <glyph glyph-name="exclamationcircle" unicode="&#xe64e;" 
d="M512 823q119 0 220 -59t160 -160t59 -220t-59 -220t-160 -160t-220 -59t-220 59t-160 160t-59 220t59 220t160 160t220 59zM585 110v109q0 8 -5 13.5t-13 5.5h-109q-8 0 -13.5 -6t-5.5 -13v-109q0 -7 5.5 -13t13.5 -6h109q8 0 13 5.5t5 13.5zM584 307l10 355q0 7 -5 10
q-6 5 -14 5h-126q-8 0 -14 -5q-5 -3 -5 -10l9 -355q0 -6 6 -10t14 -4h106q8 0 13 4t6 10z" />
    <glyph glyph-name="exclamation" unicode="&#xe64f;" 
d="M622 183v-128q0 -15 -11 -26t-26 -11h-146q-15 0 -26 11t-11 26v128q0 15 11 25.5t26 10.5h146q15 0 26 -10.5t11 -25.5zM639 786l-16 -439q-1 -14 -12 -25t-26 -11h-146q-15 0 -26 11t-12 25l-16 439q0 15 10.5 26t25.5 11h182q15 0 25.5 -11t10.5 -26z" />
    <glyph glyph-name="flag" unicode="&#xe651;" 
d="M183 750q0 -41 -37 -63v-724q0 -7 -5.5 -12.5t-12.5 -5.5h-37q-7 0 -12.5 5.5t-5.5 12.5v724q-36 22 -36 63q0 30 21 51.5t51.5 21.5t52 -21.5t21.5 -51.5zM1024 713v-436q0 -14 -7 -22t-23 -16q-123 -66 -211 -66q-34 0 -70 12.5t-62 27.5t-66 27.5t-82 12.5
q-109 0 -265 -83q-9 -5 -19 -5q-14 0 -25 10.5t-11 25.5v424q0 18 18 32q12 8 45 24q135 69 240 69q61 0 114.5 -16.5t125.5 -50.5q21 -11 50 -11q31 0 67 12t63 27t50.5 27t30.5 12q15 0 26 -11t11 -26z" />
    <glyph glyph-name="hourglassstart" unicode="&#xe652;" 
d="M878 823q0 -149 -61 -263.5t-152 -175.5q91 -61 152 -175.5t61 -263.5h55q8 0 13 -5t5 -13v-37q0 -8 -5 -13t-13 -5h-842q-8 0 -13 5t-5 13v37q0 8 5 13t13 5h55q0 149 61 263.5t152 175.5q-91 61 -152 175.5t-61 263.5h-55q-8 0 -13 5t-5 13v37q0 8 5 13t13 5h842
q8 0 13 -5t5 -13v-37q0 -8 -5 -13t-13 -5h-55zM805 823h-586q0 -38 6 -73h574q6 35 6 73zM805 -55q0 74 -19.5 142.5t-52 119t-72.5 87t-83 53.5h-132q-43 -17 -83 -53.5t-72.5 -87t-52 -119t-19.5 -142.5h586z" />
    <glyph glyph-name="infocircle" unicode="&#xe689;" 
d="M658 110v91q0 8 -5 13t-13 5h-55v293q0 8 -5 13t-13 5h-183q-8 0 -13 -5t-5 -13v-91q0 -8 5 -13.5t13 -5.5h55v-183h-55q-8 0 -13 -5t-5 -13v-91q0 -8 5 -13.5t13 -5.5h256q8 0 13 5.5t5 13.5zM585 622v91q0 8 -5 13t-13 5h-110q-8 0 -13 -5t-5 -13v-91q0 -8 5 -13.5
t13 -5.5h110q8 0 13 5.5t5 13.5zM951 384q0 -119 -59 -220t-160 -160t-220 -59t-220 59t-160 160t-59 220t59 220t160 160t220 59t220 -59t160 -160t59 -220z" />
    <glyph glyph-name="info" unicode="&#xe68a;" 
d="M695 128v-73q0 -15 -11 -26t-26 -11h-292q-15 0 -26 11t-11 26v73q0 15 11 26t26 11h36v219h-36q-15 0 -26 11t-11 26v73q0 15 11 25.5t26 10.5h219q15 0 26 -10.5t11 -25.5v-329h36q15 0 26 -11t11 -26zM622 786v-109q0 -15 -11 -26t-26 -11h-146q-15 0 -26 11t-11 26
v109q0 15 11 26t26 11h146q15 0 26 -11t11 -26z" />
    <glyph glyph-name="pencilsquareo" unicode="&#xe66e;" 
d="M507 219l67 67l-87 87l-66 -67v-32h54v-55h32zM759 631q-9 9 -19 -1l-200 -200q-10 -9 -0.5 -18.5t18.5 0.5l200 200q10 10 1 19zM805 291v-108q0 -68 -48.5 -116.5t-116.5 -48.5h-475q-68 0 -116.5 48.5t-48.5 116.5v475q0 68 48.5 116.5t116.5 48.5h475q36 0 67 -14
q8 -4 10 -14q2 -9 -5 -16l-28 -28q-8 -8 -18 -5q-13 4 -26 4h-475q-38 0 -65 -27t-27 -65v-475q0 -38 27 -65t65 -27h475q38 0 64.5 27t26.5 65v72q0 7 6 12l36 37q9 9 20.5 4t11.5 -17zM750 713l164 -164l-384 -384h-164v164zM619 254l-52 -53l-165 165l53 52q16 16 39 16
t39 -16l86 -87q16 -16 16 -38.5t-16 -38.5z" />
    <glyph glyph-name="phonesquare" unicode="&#xe655;" 
d="M805 214q0 7 -2 9q-1 5 -21.5 17.5t-50.5 28.5l-30 16q-3 2 -11 7.5t-14.5 8.5t-12.5 3q-10 0 -26.5 -18.5t-32.5 -37.5t-25 -19q-4 0 -9.5 2t-9 4t-9.5 5.5t-8 4.5q-57 32 -97.5 72.5t-72.5 97.5q-1 2 -4.5 8t-5.5 9.5t-4 9t-2 9.5q0 7 12 19t26 22t25.5 22.5t11.5 20.5
q0 6 -3 12.5t-8.5 14.5t-7.5 11t-8.5 16t-14 26t-15.5 27t-14.5 23t-9 10.5t-9.5 1.5q-27 0 -57 -13q-27 -12 -46.5 -54t-19.5 -75q0 -9 1.5 -19t3 -17.5t5.5 -19t6 -16.5t7 -19t6 -17q34 -94 123.5 -183.5t183.5 -123.5q3 -1 17 -6t19 -7t16.5 -6t19 -5.5t17.5 -3t19 -1.5
q33 0 75 19.5t54 46.5q13 30 13 57zM951 658v-548q0 -68 -48.5 -116.5t-116.5 -48.5h-548q-68 0 -116.5 48.5t-48.5 116.5v548q0 68 48.5 116.5t116.5 48.5h548q68 0 116.5 -48.5t48.5 -116.5z" />
    <glyph glyph-name="phone" unicode="&#xe656;" 
d="M914 187q0 -15 -5.5 -40t-11.5 -39q-12 -29 -70 -61q-54 -29 -106 -29q-16 0 -30.5 2t-33 7.5t-27 8.5t-31.5 11.5t-28 10.5q-56 20 -100 47q-73 45 -151 123t-123 151q-28 44 -48 100q-2 6 -10.5 28.5t-11.5 31.5t-8 27.5t-7 33t-2 29.5q0 53 29 106q32 58 60 70
q15 6 39.5 12t40.5 6q8 0 12 -2q10 -3 30 -43q6 -11 17 -31t20 -36.5t18 -30.5q2 -2 10 -14t12 -20.5t4 -16.5q0 -11 -16 -28.5t-35.5 -31.5t-35.5 -30t-16 -26q0 -6 3 -13.5t5 -11.5t8 -13.5t6 -11.5q44 -78 100 -134t134 -99q1 -1 10.5 -7t13.5 -8t12 -5t13 -3
q10 0 26 16.5t30.5 35.5t31.5 35.5t29 16.5q8 0 16 -4t20 -12.5t14 -9.5q15 -9 31 -18t36 -20t31 -17q40 -20 44 -31q1 -4 1 -12z" />
    <glyph glyph-name="plussquareo" unicode="&#xe658;" 
d="M768 439v-37q0 -8 -5 -13t-13 -5h-201v-201q0 -8 -5.5 -13t-13.5 -5h-36q-8 0 -13.5 5t-5.5 13v201h-201q-8 0 -13 5t-5 13v37q0 8 5 13t13 5h201v201q0 8 5.5 13.5t13.5 5.5h36q8 0 13.5 -5.5t5.5 -13.5v-201h201q8 0 13 -5t5 -13zM841 183v475q0 38 -27 65t-64 27h-476
q-37 0 -64 -27t-27 -65v-475q0 -38 27 -65t64 -27h476q37 0 64 27t27 65zM914 658v-475q0 -68 -48 -116.5t-116 -48.5h-476q-68 0 -116 48.5t-48 116.5v475q0 68 48 116.5t116 48.5h476q68 0 116 -48.5t48 -116.5z" />
    <glyph glyph-name="plus" unicode="&#xe659;" 
d="M914 475v-109q0 -23 -16 -39t-39 -16h-237v-238q0 -23 -16 -39t-39 -16h-110q-23 0 -39 16t-16 39v238h-237q-23 0 -39 16t-16 39v109q0 23 16 39t39 16h237v238q0 23 16 39t39 16h110q23 0 39 -16t16 -39v-238h237q23 0 39 -16t16 -39z" />
    <glyph glyph-name="qq" unicode="&#xe68f;" 
d="M154 435q-4 11 -4 30q0 12 6 28.5t14 25.5q-1 12 4 30t13 25q0 79 53 164.5t124 119.5q79 38 185 38q76 0 152 -31q28 -12 51.5 -27.5t40.5 -32t31.5 -39t24 -42.5t18.5 -48.5t14.5 -51t12.5 -55.5l1 -3q31 -48 31 -86q0 -8 -5 -23t-5 -22l1 -1.5l2 -3l1 -1.5
q44 -66 69 -123t25 -119q0 -25 -11.5 -57.5t-31.5 -32.5q-5 0 -11 4.5t-11 10t-11 14.5t-9 15l-7.5 15t-5.5 10t-2 1l-3 -2q-33 -88 -75 -128q11 -11 35 -21.5t39.5 -24t20.5 -37.5q-1 -2 -2.5 -9t-3.5 -10q-37 -56 -173 -56q-30 0 -63 5.5t-56 11.5t-60 17q-8 3 -13 4
q-8 2 -26.5 2.5t-22.5 1.5q-24 -26 -73 -37.5t-96 -11.5q-20 0 -39.5 1t-53.5 5t-58 11.5t-42.5 23t-18.5 36.5q0 23 6 34t23 28q7 1 23.5 7.5t28.5 6.5q2 0 8 1q1 1 1 3l-1 1q-28 7 -62 61t-42 89l-2 2q-3 0 -7 -12q-11 -23 -31.5 -42t-44.5 -22v0q-3 0 -4 2.5t-3 3.5
q-13 31 -13 57q0 157 144 266z" />
    <glyph glyph-name="questioncircle" unicode="&#xe65a;" 
d="M585 110v109q0 8 -5 13.5t-13 5.5h-110q-8 0 -13 -5.5t-5 -13.5v-109q0 -8 5 -13.5t13 -5.5h110q8 0 13 5.5t5 13.5zM731 494q0 50 -31.5 93t-79 66.5t-97.5 23.5q-138 0 -212 -122q-8 -14 5 -24l75 -57q4 -4 11 -4q9 0 15 7q30 39 49 53q19 13 49 13q27 0 48.5 -14.5
t21.5 -33.5q0 -22 -11.5 -35t-38.5 -26q-36 -16 -66 -49.5t-30 -71.5v-20q0 -8 5 -13.5t13 -5.5h110q8 0 13 5.5t5 13.5q0 10 12.5 27.5t31.5 28.5q18 10 27.5 16t26 20t25.5 27.5t16 35t7 46.5zM951 384q0 -119 -59 -220t-160 -160t-220 -59t-220 59t-160 160t-59 220
t59 220t160 160t220 59t220 -59t160 -160t59 -220z" />
    <glyph glyph-name="question" unicode="&#xe65b;" 
d="M622 178v-137q0 -9 -7 -16t-16 -7h-137q-9 0 -16 7t-7 16v137q0 9 7 16t16 7h137q9 0 16 -7t7 -16zM802 521q0 -31 -8.5 -57.5t-20 -43.5t-31.5 -34t-32.5 -25t-35.5 -20q-23 -14 -39 -38t-16 -38q0 -10 -6.5 -18.5t-15.5 -8.5h-138q-8 0 -14 10.5t-6 21.5v25q0 48 37 90
t82 62q33 15 47.5 31.5t14.5 43.5q0 24 -26.5 42.5t-61.5 18.5q-37 0 -62 -17q-20 -14 -61 -65q-7 -10 -18 -10q-6 0 -14 5l-94 71q-7 6 -8.5 14.5t3.5 16.5q91 152 265 152q46 0 92 -18t83 -47.5t60.5 -72.5t23.5 -91z" />
    <glyph glyph-name="search" unicode="&#xe687;" 
d="M695 420.5q0 105.5 -75 181t-181 75.5t-181 -75.5t-75 -181t75 -180.5t181 -75t181 75t75 180.5zM987 -55q0 -30 -21.5 -51.5t-51.5 -21.5q-31 0 -51 22l-196 195q-102 -71 -228 -71q-82 0 -156.5 32t-128.5 86t-85.5 128.5t-31.5 156t31.5 156t85.5 128.5t128.5 86
t156.5 32t156.5 -32t128.5 -86t85.5 -128.5t31.5 -155.5q0 -126 -71 -228l196 -196q21 -22 21 -52z" />
    <glyph glyph-name="sellsy" unicode="&#xe65c;" horiz-adv-x="1171" 
d="M857 113v418q0 12 -8.5 21t-19.5 9h-54q-11 0 -19.5 -9t-8.5 -21v-418q0 -12 8.5 -20.5t19.5 -8.5h54q11 0 19.5 8.5t8.5 20.5zM695 113v303q0 11 -8.5 20t-20.5 9h-57q-12 0 -20.5 -9t-8.5 -20v-303q0 -12 8.5 -20.5t20.5 -8.5h57q12 0 20.5 8.5t8.5 20.5zM528 113v245
q0 11 -8.5 19.5t-20.5 8.5h-57q-12 0 -20.5 -8.5t-8.5 -19.5v-245q0 -12 8.5 -20.5t20.5 -8.5h57q12 0 20.5 8.5t8.5 20.5zM361 113v206q0 12 -8.5 20.5t-19.5 8.5h-58q-12 0 -20.5 -8.5t-8.5 -20.5v-206q0 -12 8.5 -20.5t20.5 -8.5h58q11 0 19.5 8.5t8.5 20.5zM1170 196
q0 -95 -67.5 -162.5t-161.5 -67.5h-711q-95 0 -162.5 67.5t-67.5 162.5q0 66 36 122.5t96 84.5q-6 20 -6 42q0 65 46 111t111 46q58 0 103 -39q25 105 110.5 172t193.5 67q85 0 157 -42t114 -114t42 -157q0 -38 -8 -70q77 -19 126 -81.5t49 -141.5z" />
    <glyph glyph-name="shoppingcart" unicode="&#xe65d;" 
d="M402 18.5q0 -29.5 -21.5 -51.5t-51.5 -22t-51.5 22t-21.5 51.5t21.5 51t51.5 21.5t51.5 -21.5t21.5 -51zM914 18.5q0 -29.5 -21.5 -51.5t-51.5 -22t-51.5 22t-21.5 51.5t21.5 51t51.5 21.5t51.5 -21.5t21.5 -51zM987 640v-293q0 -13 -9 -23.5t-23 -12.5l-597 -70
q8 -34 8 -40q0 -9 -14 -36h526q15 0 25.5 -11t10.5 -26t-10.5 -26t-25.5 -11h-585q-15 0 -26 11t-11 26q0 6 4.5 18t9 20.5t12.5 22.5t9 17l-101 471h-117q-15 0 -25.5 10.5t-10.5 25.5t10.5 26t25.5 11h146q10 0 17 -4t11 -9t7.5 -14t4.5 -15t3 -16.5t3 -14.5h686
q15 0 25.5 -11t10.5 -26z" />
    <glyph glyph-name="signin" unicode="&#xe65e;" 
d="M750 384q0 -15 -11 -26l-311 -311q-11 -10 -26 -10t-25.5 10.5t-10.5 25.5v165h-256q-15 0 -26 10.5t-11 25.5v220q0 15 11 25.5t26 10.5h256v165q0 15 10.5 25.5t25.5 10.5t26 -10l311 -311q11 -11 11 -26zM951 585v-402q0 -68 -48.5 -116.5t-116.5 -48.5h-183
q-7 0 -12.5 5.5t-5.5 13.5q0 2 -0.5 11t3 15t1.5 13.5t5.5 11t12.5 3.5h182q38 0 65 27t27 65v402q0 38 -27 65t-65 27h-178h-6l-7 2l-5 3l-4 5l-1 8q0 2 -0.5 11t3 15t2 13.5t5.5 11.5t12 4h183q68 0 116 -48.5t48 -116.5h-6z" />
    <glyph glyph-name="signout" unicode="&#xe65f;" 
d="M402 73q0 -2 0.5 -11t3 -15t-1.5 -13.5t-5.5 -11.5t-11.5 -4h-183q-68 0 -116.5 48.5t-48.5 116.5v402q0 68 48.5 116.5t116.5 48.5h183q7 0 12.5 -5.5t5.5 -13.5q0 -2 0.5 -11t3 -15t-1.5 -13.5t-6 -11t-12 -3.5h-183q-37 0 -64 -27t-27 -65v-402q0 -38 27 -65t64 -27
h179h6l7 -2l4 -3l4 -5l1 -8h-5zM938 384q0 -15 -11 -26l-311 -311q-11 -10 -26 -10t-25.5 10.5t-10.5 25.5v165h-256q-15 0 -26 10.5t-11 25.5v220q0 15 11 25.5t26 10.5h256v165q0 15 10.5 25.5t25.5 10.5t26 -10l311 -311q11 -11 11 -26z" />
    <glyph glyph-name="spinner" unicode="&#xe661;" 
d="M301 99.5q0 -30.5 -21.5 -52t-52.5 -21.5q-29 0 -51 22t-22 51q0 31 21.5 52.5t52 21.5t52 -21.5t21.5 -52zM585 -18.5q0 -30.5 -21.5 -51.5t-51.5 -21t-51.5 21t-21.5 51.5t21.5 52t51.5 21.5t51.5 -21.5t21.5 -52zM183 384q0 -30 -21.5 -51.5t-52 -21.5t-51.5 21.5
t-21 51.5t21 51.5t51.5 21.5t52 -21.5t21.5 -51.5zM870 99q0 -29 -22 -51t-51 -22q-31 0 -52.5 21.5t-21.5 52t21.5 52t52 21.5t52 -21.5t21.5 -52.5zM319 668.5q0 -37.5 -27 -64.5t-64.5 -27t-64.5 27t-27 64.5t27 64.5t64.5 27t64.5 -27t27 -64.5zM987 384
q0 -30 -21 -51.5t-51.5 -21.5t-52 21.5t-21.5 51.5t21.5 51.5t52 21.5t51.5 -21.5t21 -51.5zM622 786.5q0 -45.5 -32 -77.5t-78 -32t-78 32t-32 77.5t32 77.5t78 32t78 -32t32 -77.5zM925 669q0 -54 -38 -91t-90 -37q-54 0 -91 37t-37 91q0 52 37 90t91 38q52 0 90 -38
t38 -90z" />
    <glyph glyph-name="suitcase" unicode="&#xe669;" 
d="M366 677h292v73h-292v-73zM165 677v-732h-37q-53 0 -90.5 38t-37.5 90v476q0 52 37.5 90t90.5 38h37zM805 677v-732h-586v732h74v91q0 23 16 39t38 16h330q22 0 38 -16t16 -39v-91h74zM1024 549v-476q0 -52 -37.5 -90t-90.5 -38h-37v732h37q53 0 90.5 -38t37.5 -90z" />
    <glyph glyph-name="trasho" unicode="&#xe662;" 
d="M402 475v-329q0 -8 -5 -13t-13 -5h-37q-8 0 -13 5t-5 13v329q0 8 5 13.5t13 5.5h37q8 0 13 -5.5t5 -13.5zM549 475v-329q0 -8 -5.5 -13t-13.5 -5h-36q-8 0 -13.5 5t-5.5 13v329q0 8 5.5 13.5t13.5 5.5h36q8 0 13.5 -5.5t5.5 -13.5zM695 475v-329q0 -8 -5 -13t-13 -5h-37
q-8 0 -13 5t-5 13v329q0 8 5 13.5t13 5.5h37q8 0 13 -5.5t5 -13.5zM768 62v541h-512v-541q0 -13 4 -23.5t8.5 -15.5t5.5 -5h476q1 0 5.5 5t8.5 15.5t4 23.5zM384 677h256l-27 66q-4 6 -10 7h-181q-6 -1 -10 -7zM942 725v-36q0 -8 -5 -13.5t-13 -5.5h-55v-541
q0 -48 -27 -82.5t-64 -34.5h-476q-37 0 -64 33.5t-27 80.5v544h-55q-8 0 -13 5.5t-5 13.5v36q0 8 5 13t13 5h177l40 96q8 21 30.5 36t45.5 15h182q23 0 45.5 -15t30.5 -36l40 -96h177q8 0 13 -5t5 -13z" />
    <glyph glyph-name="trash" unicode="&#xe663;" 
d="M402 110v402q0 8 -5 13t-13 5h-37q-8 0 -13 -5t-5 -13v-402q0 -8 5 -13.5t13 -5.5h37q8 0 13 5.5t5 13.5zM549 110v402q0 8 -5.5 13t-13.5 5h-36q-8 0 -13.5 -5t-5.5 -13v-402q0 -8 5.5 -13.5t13.5 -5.5h36q8 0 13.5 5.5t5.5 13.5zM695 110v402q0 8 -5 13t-13 5h-37
q-8 0 -13 -5t-5 -13v-402q0 -8 5 -13.5t13 -5.5h37q8 0 13 5.5t5 13.5zM384 677h256l-27 66q-4 6 -10 7h-181q-6 -1 -10 -7zM942 725v-36q0 -8 -5 -13.5t-13 -5.5h-55v-541q0 -48 -27 -82.5t-64 -34.5h-476q-37 0 -64 33.5t-27 80.5v544h-55q-8 0 -13 5.5t-5 13.5v36
q0 8 5 13t13 5h177l40 96q8 21 30.5 36t45.5 15h182q23 0 45.5 -15t30.5 -36l40 -96h177q8 0 13 -5t5 -13z" />
    <glyph glyph-name="user" unicode="&#xe665;" 
d="M914 93q0 -68 -41.5 -108t-110.5 -40h-500q-69 0 -110.5 40t-41.5 108q0 30 2 59t8 62.5t15 62t24.5 55.5t35.5 46.5t49 31t63 11.5q6 0 24.5 -12.5t42.5 -27.5t62 -27.5t76 -12.5t76 12.5t62 27.5t42.5 27.5t24.5 12.5q34 0 63 -11.5t49 -31t35.5 -46.5t24.5 -55.5
t15 -62t8 -62.5t2 -59zM731 603.5q0 -90.5 -64 -155t-155 -64.5t-155 64.5t-64 155t64 155t155 64.5t155 -64.5t64 -155z" />
    <glyph glyph-name="users" unicode="&#xe66b;" horiz-adv-x="1098" 
d="M339 384q-93 -3 -152 -73h-76q-47 0 -79 23t-32 68q0 201 71 201q3 0 24.5 -12t56 -24t67.5 -12q39 0 76 13q-2 -21 -2 -38q0 -79 46 -146zM951 20q0 -69 -42 -108.5t-111 -39.5h-499q-69 0 -111 39.5t-42 108.5q0 30 2 59t8 62.5t15.5 62t24.5 55.5t35 46.5t49 30.5
t64 11q6 0 24.5 -12t41.5 -27t61.5 -27.5t77 -12.5t77 12.5t61.5 27.5t41.5 27t24.5 12q35 0 64 -11t49 -30.5t35.5 -46.5t24.5 -55.5t15 -62t8 -62.5t2 -59zM366 749.5q0 -60.5 -43 -103.5t-103.5 -43t-103.5 43t-43 103.5t43 103.5t103.5 43t103.5 -43t43 -103.5zM768 530
q0 -91 -64.5 -155t-155 -64t-155 64t-64.5 155t64.5 155.5t155 64.5t155 -64.5t64.5 -155.5zM1097 402q0 -45 -32 -68t-79 -23h-76q-59 70 -152 73q47 67 47 146q0 17 -3 38q37 -13 76 -13q33 0 67.5 12t56 24t24.5 12q71 0 71 -201zM1024 749.5q0 -60.5 -43 -103.5
t-103.5 -43t-103.5 43t-43 103.5t43 103.5t103.5 43t103.5 -43t43 -103.5z" />
    <glyph glyph-name="warning" unicode="&#xe666;" 
d="M585 110v109q0 8 -5.5 13.5t-12.5 5.5h-110q-7 0 -12.5 -5.5t-5.5 -13.5v-109q0 -8 5.5 -13.5t12.5 -5.5h110q7 0 12.5 5.5t5.5 13.5zM584 324l10 262q0 7 -5 11q-8 6 -14 6h-126q-6 0 -14 -6q-5 -4 -5 -12l9 -261q0 -6 6 -9.5t14 -3.5h106q8 0 13 3.5t6 9.5zM576 858
l439 -805q20 -36 -1 -72q-10 -16 -27 -26t-36 -10h-878q-19 0 -36 10t-27 26q-21 36 -1 72l439 805q10 17 27 27.5t37 10.5t37 -10.5t27 -27.5z" />
    <glyph glyph-name="yen" unicode="&#xe667;" 
d="M563 18h-98q-8 0 -13 5.5t-5 13.5v188h-165q-7 0 -12.5 5t-5.5 13v59q0 8 5.5 13.5t12.5 5.5h165v48h-165q-7 0 -12.5 5t-5.5 13v60q0 7 5.5 12.5t12.5 5.5h122l-183 330q-5 10 0 19q6 9 16 9h111q11 0 16 -10l123 -243q11 -22 32 -72q6 14 17.5 39t15.5 35l109 240
q5 11 17 11h109q10 0 16 -9q5 -8 0 -18l-179 -331h123q8 0 13 -5.5t5 -12.5v-60q0 -8 -5 -13t-13 -5h-166v-48h166q8 0 13 -5.5t5 -13.5v-59q0 -8 -5 -13t-13 -5h-166v-188q0 -8 -5 -13.5t-13 -5.5z" />
    <glyph glyph-name="quanxianliebiao" unicode="&#xe644;" 
d="M729 468q-14 0 -24 6q-63 44 -118 118v1l-1 1q-5 11 -5 20q0 2 1 7l0.5 1l0.5 1v1l1 2q26 67 88 88q4 1 9 1q14 0 24 -6q62 -44 117 -117q11 -11 7 -24q-1 -5 -1 -6l-0.5 -1l-0.5 -1v-1l-1 -2q-26 -67 -88 -88q-4 -1 -9 -1v0v0zM630 617q38 -52 100 -99q38 16 49 52
q-37 53 -99 99q-35 -14 -50 -52v0zM630 617zM938 204h-206q-15 0 -25 -10t-10 -24.5t10 -24.5t25 -10h206q14 0 24.5 10t10.5 25q0 14 -10.5 24t-24.5 10zM638 204v0q-14 0 -24.5 -10t-10.5 -24.5t10.5 -24.5t24.5 -10v0q15 0 25 10t10 25q0 14 -10.5 24t-24.5 10zM938 357
h-206q-15 0 -25 -10.5t-10 -24.5t10 -24.5t25 -10.5h206q14 0 24.5 10.5t10.5 24.5t-10.5 24.5t-24.5 10.5zM638 357v0q-14 0 -24.5 -10.5t-10.5 -24.5t10.5 -24.5t24.5 -10.5v0q15 0 25 10.5t10 24.5t-10.5 24.5t-24.5 10.5zM638 52v0q-14 0 -24.5 -10.5t-10.5 -24.5v0
q0 -15 10.5 -25t24.5 -10v0q15 0 25 10t10 25v0q0 14 -10.5 24.5t-24.5 10.5zM938 52h-206q-15 0 -25 -10.5t-10 -24.5v0q0 -15 10 -25t25 -10h206q14 0 24.5 10t10.5 25v0q0 14 -10.5 24.5t-24.5 10.5zM682 844q-118 0 -202 -84.5t-84 -202.5q0 -55 19 -104l-348 -349
q-16 -15 -16 -35v-87q0 -23 17.5 -40.5t40.5 -17.5h87q17 0 35 16l42 42h67q23 0 40 17.5t17 40.5v58h58q23 0 40.5 17t17.5 41v66l32 32v5v9v71l-21 -21l-56 -56q-17 -18 -17 -40v-66h-58q-23 0 -40.5 -17.5t-17.5 -40.5v-58h-66q-23 0 -40 -18l-40 -40h-82v82l335 335
l42 43q-33 55 -33 115q0 95 67 162t161.5 67t161.5 -67t67 -162q1 -63 -30 -118h69q25 55 25 118q-3 119 -87.5 203t-202.5 84z" />
    <glyph glyph-name="workbench1" unicode="&#xe66a;" 
d="M663 372q23 -22 54 -22t54 22l163 155q24 22 24 53t-24 54l-163 156q-23 21 -53.5 21t-54.5 -22l-163 -156q-22 -22 -22 -53t22 -52l163 -156v0zM525 606zM528 292q-22 -21 -22 -51v-210q0 -31 22 -51q22 -21 52 -21h219q31 0 52 21q22 21 22 51v210q0 30 -22 51
q-21 20 -52 20h-219v0q-30 0 -52 -20v0zM802 277zM142 378h218q31 0 53 21t22 51v210q0 30 -22 51q-22 20 -53 20h-218q-31 0 -52 -20q-22 -21 -22 -51v-210q0 -29 21 -51q22 -21 53 -21v0zM104 662zM142 -41h218q31 0 53 21t22 51v210q0 30 -22 51q-22 20 -53 20h-218
q-31 0 -52 -20q-22 -21 -22 -51v-210q0 -30 22 -51q21 -21 52 -21v0zM104 243z" />
    <glyph glyph-name="kehu1" unicode="&#xe63d;" 
d="M930 757h-844l-53 -69v-652h121v61h179v-61h361v60h179v-60h117v26h3v622zM333 635q39 0 67 -34.5t28 -84t-28 -84t-67 -34.5t-67 34.5t-28 84t28 84t67 34.5zM481 215h-296q-38 0 -32 37q7 41 60 114q10 14 24.5 14t23.5 -7l9 -7q32 -30 63 -31q14 0 29.5 8t24.5 15l9 8
q4 4 10 8t21.5 5t25.5 -13q53 -73 60 -114q6 -37 -32 -37zM873 272h-240v64h240v-64zM873 392h-240v64h240v-64zM873 512h-240v64h240v-64z" />
    <glyph glyph-name="jindutiao" unicode="&#xe680;" 
d="M852 784h-638q-48 0 -82 -34.5t-34 -81.5v0q0 -48 34 -82t82 -34h638q48 0 82 34t34 82v0q0 47 -34 81.5t-82 34.5zM879 668q0 -18 -13 -31t-31 -13h-605q-18 0 -30.5 13t-12.5 31v0q0 18 12.5 30.5t30.5 12.5h605q18 0 31 -12.5t13 -30.5v0zM852 478h-638q-48 0 -82 -34
t-34 -82v0q0 -48 34 -82t82 -34h638q48 0 82 34t34 82v0q0 48 -34 82t-82 34zM905 348q0 -18 -13 -30.5t-30 -12.5h-446q-17 0 -30 12.5t-13 30.5v0q0 18 13 31t30 13h446q17 0 30 -13t13 -31v0zM852 173h-638q-48 0 -82 -34t-34 -82v0q0 -48 34 -82t82 -34h638q48 0 82 34
t34 82v0q0 48 -34 82t-82 34zM905 57q0 -18 -13 -31t-30 -13h-243q-18 0 -30.5 13t-12.5 31v0q0 18 12.5 30.5t30.5 12.5h243q17 0 30 -12.5t13 -30.5v0z" />
    <glyph glyph-name="dingdanxiazai" unicode="&#xe681;" horiz-adv-x="1025" 
d="M852 128h-25v25v245v0h-121v0v-146q0 -10 -7.5 -17t-17.5 -7t-17 7t-7 17v170v24h24h146h49v126v-269v-126h97h51l-32 -40l-194 -240l-18 -23l-19 22l-214 242q-6 7 -5.5 17t8 17t17.5 6t17 -8l194 -220v0v0l144 178h-70zM135 -53q-36 0 -61 26.5t-25 63.5v808v0h692
q35 0 60.5 -26.5t25.5 -63.5v-309h49v309q0 57 -39.5 98t-95.5 41h-717h-24v-25v-832q0 -57 39.5 -97.5t95.5 -40.5h544v48h-544v0zM728 505q10 0 17 7.5t7 17.5t-7 17t-17 7h-557q-10 0 -17 -7t-7 -17t7 -17.5t17 -7.5h557v0zM730 651q10 0 17.5 7t7.5 17t-7.5 17.5
t-17.5 7.5h-556q-10 0 -17 -7.5t-7 -17.5t7 -17t17 -7h556v0z" />
    <glyph glyph-name="tianjiajia" unicode="&#xe63e;" 
d="M538.5 782q-104.5 0 -193 -51.5t-139.5 -140t-51 -192.5t51 -192.5t139.5 -140t193 -51.5t193 51.5t140 140t51.5 192.5t-51.5 192.5t-140 140t-193 51.5zM683 375h-123v-121q0 -10 -6.5 -16.5t-16.5 -6.5t-16.5 6.5t-6.5 16.5l2 121h-122q-10 0 -16.5 6.5t-6.5 16.5
t6.5 16.5t16.5 6.5h122v122q0 10 6.5 16.5t16 6.5t16 -6.5t6.5 -16.5v-122h122q10 0 16.5 -6.5t6.5 -16.5t-6.5 -16.5t-16.5 -6.5z" />
    <glyph glyph-name="unie737" unicode="&#xe60b;" 
d="M609 224q-37 0 -69 4q-13 1 -21 11.5t-6.5 23.5t11.5 21.5t23 6.5q44 -3 89 -2t84.5 13t49.5 32q6 12 18.5 16.5t24.5 -1t16.5 -18t-1.5 -24.5q-40 -83 -219 -83v0zM896 256q-13 0 -22.5 9.5t-9.5 22.5v110l-43 16q-21 7 -21 30q0 119 -84.5 203.5t-203.5 84.5
t-203.5 -84.5t-84.5 -203.5q0 -8 -3.5 -15t-9.5 -11l-19 -14v-116q0 -13 -9.5 -22.5t-22.5 -9.5t-22.5 9.5t-9.5 22.5v133q0 5 1.5 10t4.5 9t7 7l19 13q7 140 109 238t243 98q92 0 170.5 -44t126.5 -119.5t54 -166.5l44 -15q21 -8 21 -30v-133q0 -13 -9.5 -22.5t-22.5 -9.5
v0zM640 112v10q48 37 64 73q-19 -3 -88 -3h-18q-11 0 -18 -0.5t-15 0t-14 0.5t-11 1q-26 3 -43 25t-14 49q3 26 24 42.5t47 13.5q55 -5 106 -0.5t75 14.5q1 21 1 84q0 50 -15 91t-43 69.5t-68.5 44t-89.5 16.5h-20q-40 -1 -73.5 -11t-59.5 -29t-44 -45.5t-27 -61t-9 -75.5
q0 -35 0.5 -57.5t6 -61.5t15 -67t29 -59.5t46.5 -52.5v-10q-100 -15 -163 -53t-63 -89q0 -22 21 -31q6 -3 12 -3h628q8 0 17.5 5t15.5 13t6 16q0 51 -60 89t-158 53v0z" />
    <glyph glyph-name="education" unicode="&#xe641;" horiz-adv-x="1027" 
d="M982 522v-169l35 -36l-74 -77l-75 75l51 47v134q-312 -129 -337 -141q-36 -16 -66.5 -16.5t-65.5 13.5q-304 114 -391 156q-58 28 -59 47.5t60 42.5q57 22 196 73.5t182 68.5q35 14 50.5 18.5t38.5 3.5t47 -13q44 -18 197 -77.5t206 -81.5q22 -9 33.5 -17.5t14 -14
t-2 -11t-10.5 -9t-16 -8.5t-14 -8v0zM592 288q26 11 94.5 43t107.5 48v-267q-4 -5 -12 -12t-34.5 -25.5t-56.5 -32.5t-77.5 -25.5t-96.5 -11.5q-54 0 -104 11.5t-81.5 25.5t-59.5 32.5t-36.5 25.5t-12.5 12v0v250q29 -12 209 -74q41 -14 81.5 -15.5t78.5 15.5v0zM592 288z
" />
    <glyph glyph-name="xiadan1" unicode="&#xe66d;" 
d="M390 833h86v-43h-64q-13 0 -22 -9t-9 -22t9 -22t22 -9h190q13 0 22 9t9 22t-9 22t-22 9h-64v43h87q13 0 22 9.5t9 22t-9 21.5t-22 9h-235q-13 0 -22 -9t-9 -21.5t9 -22t22 -9.5v0v0v0zM250 520q0 -13 9 -22t22 -9h451q12 0 21 9t9 22t-9 22t-21 9h-451q-13 0 -22 -9
t-9 -22v0v0v0zM732 383h-451q-13 0 -22 -9t-9 -22t9 -22t22 -9h451q12 0 21 9t9 22t-9 22t-21 9v0v0v0zM732 215h-451q-13 0 -22 -9t-9 -21.5t9 -22t22 -9.5h451q12 0 21 9.5t9 22t-9 21.5t-21 9v0v0v0zM961 687q-2 26 -13 49q-18 41 -57 62q-31 16 -62 17h-1h-54h-1
q-12 0 -21 -9t-9.5 -22t9 -22t21.5 -9h55q18 -1 35 -11q31 -18 36 -61v-664q0 -34 -22.5 -58t-54.5 -24h-278v0h-353q-32 0 -55 23.5t-23 57.5q0 662 1 665q5 43 35 61q17 9 36 10h54q13 0 22 9.5t9 22t-9 21.5t-22 9v0h-55v0q-31 0 -62 -17q-64 -34 -71 -116v-5v-5v-655
q0 -59 41 -101t99 -42h631q58 0 98.5 42t40.5 101v54v617v0v0v0z" />
    <glyph glyph-name="ptjs" unicode="&#xe63f;" 
d="M922 740h-820q-14 0 -24 -10t-10 -25v-102q0 -14 10 -24t24 -10h820q14 0 24 10t10 24v102q0 15 -10 25t-24 10zM242 620h-83q-14 0 -24.5 10t-10.5 24t10.5 24t24.5 10h83q15 0 25.5 -10t10.5 -24t-10.5 -24t-25.5 -10zM875 620h-282q-14 0 -24.5 10t-10.5 24t10.5 24
t24.5 10h282q15 0 25 -10t10 -24t-10 -24t-25 -10zM922 469h-820q-14 0 -24 -10t-10 -24v-102q0 -14 10 -24t24 -10h820q14 0 24 10t10 24v102q0 14 -10 24t-24 10zM242 350h-83q-14 0 -24.5 10t-10.5 24t10.5 24t24.5 10h83q15 0 25.5 -10t10.5 -24t-10.5 -24t-25.5 -10z
M875 350h-282q-14 0 -24.5 10t-10.5 24t10.5 24t24.5 10h282q15 0 25 -10t10 -24t-10 -24t-25 -10zM922 199h-820q-14 0 -24 -10t-10 -24v-102q0 -15 10 -25t24 -10h820q14 0 24 10t10 25v102q0 14 -10 24t-24 10zM242 80h-83q-14 0 -24.5 10t-10.5 24t10.5 24t24.5 10h83
q15 0 25.5 -10t10.5 -24t-10.5 -24t-25.5 -10zM875 80h-282q-14 0 -24.5 10t-10.5 24t10.5 24t24.5 10h282q15 0 25 -10t10 -24t-10 -24t-25 -10z" />
    <glyph glyph-name="weibiaoti3" unicode="&#xe610;" 
d="M475 823q110 0 202.5 -19.5t146 -53.5t53.5 -73.5t-53.5 -73t-146 -53t-202.5 -19.5q-109 0 -201.5 19.5t-146.5 53t-54 73t53.5 73.5t146.5 53.5t202 19.5v0zM842 79q35 -28 35 -60q0 -40 -53.5 -73.5t-146 -53.5t-202.5 -20q-109 0 -202 20t-146.5 53.5t-53.5 73.5
q0 30 37 60q30 -32 131.5 -53t233.5 -21q133 0 234 20.5t133 53.5v0zM842 299q35 -29 35 -62q0 -40 -53.5 -73.5t-146 -52.5t-202.5 -19q-109 0 -202 19t-146.5 52.5t-53.5 73.5q0 32 37 62q30 -33 131.5 -54t233.5 -21q133 0 234 21t133 54v0zM842 519q35 -29 35 -62
q0 -40 -53.5 -73.5t-146 -52.5t-202.5 -19q-109 0 -202 19t-146.5 52.5t-53.5 73.5q0 31 37 62q30 -33 131.5 -54t233.5 -21t233.5 21t133.5 54v0z" />
    <glyph glyph-name="ziyuan" unicode="&#xe640;" 
d="M467 403q18 -19 45 -19t45 19l128 128q14 13 17.5 32.5t-3.5 37t-23.5 28.5t-35.5 11h-64v192q0 27 -18.5 45.5t-45.5 18.5q-26 0 -45 -18.5t-19 -45.5v-192h-64q-19 0 -35.5 -11t-24 -28.5t-3.5 -37t18 -32.5zM192 64h640l-128 192h-384zM832 896h-128v-128h128
q27 0 45.5 -18.5t18.5 -45.5v-640q0 -27 -18.5 -45.5t-45.5 -18.5h-640q-27 0 -45.5 18.5t-18.5 45.5v640q0 27 18.5 45.5t45.5 18.5h128v128h-128q-80 0 -136 -56.5t-56 -135.5v-640q0 -80 56 -136t136 -56h640q80 0 136 56t56 136v640q0 79 -56.5 135.5t-135.5 56.5z" />
    <glyph glyph-name="yumourenqiatan" unicode="&#xe62f;" 
d="M924 108h-199v0h-328v0h-42v0h-11l-116 -111q-12 -12 -30 -12v0v0v0q-18 1 -30 12v0.5t-1 0.5q-2 3 -4 5q-1 1 -1.5 2l-0.5 1q-2 3 -2 4t-0.5 1.5t-0.5 1.5q-1 3 -2 5q-1 4 -1 8v0v82h-7v0h-50q-17 0 -29.5 12t-12.5 29v585q0 16 12.5 28t29.5 12h826q18 0 30.5 -12
t12.5 -28v-585q0 -17 -12.5 -29t-30.5 -12zM297.5 516q-35.5 0 -60.5 -24t-25 -57.5t25 -57.5t60.5 -24t60.5 24t25 57.5t-25 57.5t-60.5 24zM511.5 516q-35.5 0 -60.5 -24t-25 -57.5t25 -57.5t60.5 -24t60.5 24t25 57.5t-25 57.5t-60.5 24zM724.5 516q-35.5 0 -60.5 -24
t-25 -57.5t25 -57.5t60.5 -24t60.5 24t25 57.5t-25 57.5t-60.5 24z" />
    <glyph glyph-name="xiadan2" unicode="&#xe683;" 
d="M919 64l-136 -153q-12 -19 -34.5 -19t-35.5 19l-135 153q-13 21 -1.5 42.5t36.5 21.5h57v138q0 16 11.5 27.5t27.5 11.5h79q16 0 27.5 -11.5t11.5 -27.5v-138h57q24 0 36 -21.5t-1 -42.5zM788 89v177h-79v-177h-99l138 -158l138 158h-98zM827 778h-118v39h118
q16 0 27.5 -11.5t11.5 -27.5v-335h-39v335zM689 581h-433q-8 0 -14 5.5t-6 14t6 14t14 5.5h433q8 0 14 -5.5t6 -14t-6 -14t-14 -5.5zM650 719q-8 0 -14 5.5t-6 13.5v119q0 8 6 13.5t14 5.5t14 -5.5t6 -13.5v-119q0 -8 -6 -13.5t-14 -5.5zM374 817h217v-39h-217v39zM315 719
q-8 0 -14 5.5t-6 13.5v119q0 8 6 13.5t14 5.5t14 -5.5t6 -13.5v-119q0 -8 -6 -13.5t-14 -5.5zM138 -10h216v-39h-216q-16 0 -28 11.5t-12 27.5v788q0 16 12 27.5t28 11.5h118v-39h-118v-788zM236 443q0 8 6 14t14 6h335q8 0 13.5 -6t5.5 -14t-5.5 -14t-13.5 -6h-335
q-8 0 -14 6t-6 14zM236 285.5q0 8.5 6 14t14 5.5h177q8 0 14 -5.5t6 -14t-6 -14t-14 -5.5h-177q-8 0 -14 5.5t-6 14z" />
    <glyph glyph-name="unlock" unicode="&#xe85f;" horiz-adv-x="1210" 
d="M1210 570v-186q0 -19 -14 -32.5t-33 -13.5h-46q-19 0 -33 13.5t-14 32.5v186q0 77 -54.5 131.5t-131.5 54.5t-131.5 -54.5t-54.5 -131.5v-139h70q29 0 49.5 -20.5t20.5 -49.5v-419q0 -29 -20.5 -49t-49.5 -20h-698q-29 0 -49.5 20t-20.5 49v419q0 29 20.5 49.5t49.5 20.5
h488v139q0 135 96 230.5t230.5 95.5t230 -95.5t95.5 -230.5zM1210 570z" />
    <glyph glyph-name="tongxunlu" unicode="&#xe639;" 
d="M987 -18h-73v183h73q16 0 26.5 -11t10.5 -26v-110q0 -15 -10.5 -25.5t-26.5 -10.5zM987 201h-73v183h73q16 0 26.5 -10.5t10.5 -26.5v-109q0 -15 -10.5 -26t-26.5 -11zM987 421h-73v182h73q16 0 26.5 -10.5t10.5 -25.5v-110q0 -15 -10.5 -25.5t-26.5 -10.5zM987 640h-73
v183h73q16 0 26.5 -11t10.5 -26v-109q0 -16 -10.5 -26.5t-26.5 -10.5zM841 -128h-769q-15 0 -25 10.5t-10 26.5v73h73q15 0 25.5 10.5t10.5 25.5v73q0 16 -10.5 26.5t-25.5 10.5h-73v73h73q15 0 25.5 11t10.5 26v73q0 15 -10.5 25.5t-25.5 10.5h-73v74h73q15 0 25.5 10.5
t10.5 25.5v73q0 15 -10.5 26t-25.5 11h-73v73h73q15 0 25.5 10.5t10.5 26.5v73q0 15 -10.5 25.5t-25.5 10.5h-73v73q0 16 10 26.5t25 10.5h769q15 0 26 -10.5t11 -26.5v-950q0 -16 -11 -26.5t-26 -10.5zM549 384q-1 0 -3 2q18 -1 37 27t29 53t10 28h22q5 0 8.5 12t4.5 24
l1 13q0 10 -4 17t-10 7h-22v36v37q0 30 -21.5 51.5t-51.5 21.5h-74q-30 0 -51.5 -21.5t-21.5 -51.5v-37v-36h-22q-6 0 -10 -7t-4 -17q2 -49 14 -49h22q2 -5 4.5 -12.5t10.5 -26.5t16.5 -33.5t21 -25.5t24.5 -10q-3 -2 -3.5 -2t-86.5 -43q-174 -94 -169 -155q4 -37 73 -58
h438q149 46 -6 158q-75 54 -176 98zM110 731v-36q0 -8 -5.5 -13t-13.5 -5h-73q-7 0 -12.5 5t-5.5 13v36q0 8 5.5 13.5t12.5 5.5h73q8 0 13.5 -5.5t5.5 -13.5zM18 530h73q8 0 13.5 -5t5.5 -13v-37q0 -7 -5.5 -12.5t-13.5 -5.5h-73q-7 0 -12.5 5.5t-5.5 12.5v37q0 8 5.5 13
t12.5 5zM18 311h73q8 0 13.5 -5.5t5.5 -12.5v-37q0 -8 -5.5 -13t-13.5 -5h-73q-7 0 -12.5 5t-5.5 13v37q0 7 5.5 12.5t12.5 5.5zM18 91h73q8 0 13.5 -5t5.5 -13v-36q0 -8 -5.5 -13.5t-13.5 -5.5h-73q-7 0 -12.5 5.5t-5.5 13.5v36q0 8 5.5 13t12.5 5z" />
    <glyph glyph-name="quanxian1" unicode="&#xe650;" 
d="M881 343q17 0 29 12t12 29v307q0 42 -30.5 72.5t-72.5 30.5h-614q-42 0 -72.5 -30.5t-30.5 -72.5v-614q0 -42 30.5 -72.5t72.5 -30.5h614q42 0 72.5 30.5t30.5 72.5v184q0 17 -12 29t-29 12t-29 -12t-12 -29v-153q0 -22 -15 -37t-37 -15h-552q-22 0 -37 15t-15 37v552
q0 22 15 37t37 15h552q22 0 37 -15t15 -37v-276q0 -17 12 -29t29 -12zM439 374q45 0 77.5 33t32.5 80t-32.5 80t-77.5 33t-78 -33t-33 -80q0 -45 33 -79t78 -34zM484 364h-81q-58 0 -97.5 -42t-39.5 -101v-10q0 -27 33 -34.5t104 -7.5h81q23 0 37 0.5t32.5 1.5t29.5 4
t21.5 7.5t15.5 11.5t5 17v10q0 59 -41.5 101t-99.5 42zM651 398q26 0 45 19t19 45.5t-19 45.5t-45 19t-44.5 -19t-18.5 -46q0 -26 19 -45t44 -19zM677 394h-46q-43 0 -67 -37q43 -25 63 -75h4h46h6h29.5t22 2t18 7t5.5 13v5q0 35 -24 60t-57 25z" />
    <glyph glyph-name="shen" unicode="&#xe628;" 
d="M340 317h139v-85h-139v85zM684 317h-136v-85h100q20 -1 28.5 8t7.5 28v49zM340 443h139v-80h-139v80zM548 443h136v-80h-136v80zM512 833q-91 0 -174 -35.5t-143.5 -96t-96 -143.5t-35.5 -174t35.5 -174t96 -143.5t143.5 -96t174 -35.5t174 35.5t143.5 96t96 143.5
t35.5 174t-35.5 174t-96 143.5t-143.5 96t-174 35.5zM666 185h-118v-108h-70v108h-200v301h200v60h70v-60h200v-216q3 -85 -82 -85zM792 517h-66v59h-427v-59h-70v106h244v46h78v-46h241v-106z" />
    <glyph glyph-name="quanxian2" unicode="&#xe695;" 
d="M691 322h-1t-1 1v-3l2 -1q1 0 2.5 1t1.5 2v2zM948 828l-1 2h-513v-2q-37 -259 106 -447q31 -41 70 -76t56 -45.5t24 -14.5l1 -1l1 1q63 34 111.5 79.5t77 95.5t44 94.5t23.5 90.5q21 118 0 223zM691 264q-12 6 -27.5 17t-50.5 42.5t-63 68.5q-133 176 -99 419h480
q19 -99 0 -208q-7 -44 -22 -86t-42 -88.5t-72 -89.5t-104 -75zM882 756h-383v-2q-27 -193 79 -333q23 -31 52.5 -57t42 -34t17.5 -11h1h1q160 86 191 269q8 42 7 83t-3.5 59.5t-3.5 23.5zM524 730h167v-194h-151q-30 89 -16 194zM691 355v180h147q-2 -40 -30.5 -79
t-65.5 -69q-30 -24 -51 -32zM649 167h-118q-6 0 -10 -4.5t-4 -10.5v-41h-194v195h138v35h-138v176h73v28h-102v-203h-73v41q0 6 -4 10.5t-10 4.5h-118q-6 0 -10 -4.5t-4 -10.5v-118q0 -6 4 -10.5t10 -4.5h118q6 0 10 4.5t4 10.5v40h73v-221h223v-50q0 -6 4 -10t10 -4h118
q6 0 10 4t4 10v118q0 6 -4 10.5t-10 4.5z" />
    <glyph glyph-name="quanxian3" unicode="&#xe698;" 
d="M305 615q-4 0 -7.5 -3t-3.5 -7v-195q0 -4 3.5 -7t7.5 -3h88v-96h-249v-118h-58q-4 0 -7 -3t-3 -8v-144q0 -4 3 -7.5t7 -3.5h143q5 0 8 3.5t3 7.5v144q0 5 -3 8t-8 3h-58v92h222v-92h-58q-5 0 -8 -3t-3 -8v-144q0 -4 3 -7.5t8 -3.5h142q5 0 8 3.5t3 7.5v144q0 5 -3 8t-8 3
h-57v92h220v-92h-58q-4 0 -7.5 -3t-3.5 -8v-144q0 -4 3.5 -7.5t7.5 -3.5h142q5 0 8 3.5t3 7.5v144q0 5 -3 8t-8 3h-57v118h-248v96h86q4 0 7 3t3 7v83q-26 57 -34 122h-176zM947 828v2h-445l-1 -2q-11 -81 -1 -155q9 -77 41 -145q21 -46 52 -88q27 -35 61 -65.5t48.5 -40
t20.5 -12.5h1h1q55 30 97 69.5t66.5 82.5t38.5 81.5t21 79.5q17 101 -1 193v0zM933 632q-6 -38 -19 -74t-36.5 -76.5t-62.5 -78t-91 -64.5q-66 37 -121 111q-39 51 -62 113q-20 52 -27 110q-8 67 2 140h417q16 -85 0 -181zM891 765h-332l-1 -2q-23 -167 69 -288
q42 -55 97 -88l1 -1l1 1q138 74 165 233q8 36 6.5 71.5t-3.5 51.5t-3 21v1zM724 575h-130q-26 77 -14 168h145v-168h-1zM769 445q-20 -15 -44 -28v157h127q-1 -34 -26 -68t-57 -61z" />
    <glyph glyph-name="jiaoseguanli" unicode="&#xe60d;" horiz-adv-x="1080" 
d="M393 -40v255h26q18 0 30.5 13t12.5 31v181q0 18 -12.5 30.5t-30.5 12.5h-139q-18 0 -30.5 -12.5t-12.5 -30.5v-181q0 -18 12.5 -31t30.5 -13h26v-255h-56v204q-31 10 -50 36t-19 59v181q0 41 29 70t70 29h139q41 0 70.5 -29t29.5 -70v-181q0 -33 -19.5 -59t-49.5 -36
v-204h-57zM848 33q-22 0 -38 15.5t-16 38t16 38t38 15.5t38 -15.5t16 -38t-16 -38t-38 -15.5zM637 58v5q-7 5 -10 13q-2 5 -3 12v267h-40q-12 1 -20 9q-8 9 -7 20q0 11 8 18.5t19 8.5h40v267q0 10 5 16q9 14 24 14h71q12 0 20 -9q8 -8 8 -20q0 -11 -8 -19t-19 -8h-45v-241
h45q12 0 20 -8.5t8 -20t-8 -19.5t-20 -8h-45v-240h44q12 0 20.5 -8.5t8.5 -20t-8.5 -20t-20.5 -8.5h-87zM848 329q-22 0 -38 16t-16 38t16 38t38 16t38 -16t16 -38t-16 -38t-38 -16zM349.5 579q-47.5 0 -81.5 33.5t-34 81t34 81.5t81.5 34t81 -34t33.5 -81
q0 -48 -33.5 -81.5t-81 -33.5zM349 752q-24 0 -41.5 -17.5t-17.5 -41.5t17.5 -41.5t41.5 -17.5t41.5 17.5t17.5 41.5t-17.5 41.5t-41.5 17.5zM848 626q-22 0 -38 15.5t-16 38t16 38t38 15.5t38 -15.5t16 -38t-16 -38t-38 -15.5z" />
  </font>
</defs>
</svg>
